<svg width="132" height="152" viewBox="0 0 132 152" fill="none" xmlns="http://www.w3.org/2000/svg">
<g id="Group 1">
<g id="Layer1002">
<path id="path162" fill-rule="evenodd" clip-rule="evenodd" d="M53.6481 81.9073C54.5752 81.7109 77.3572 81.7385 78.0751 81.9198L78.0811 131.587L53.6575 131.662L53.6481 81.9073ZM14.3379 81.7799L48.2163 81.8263L48.2304 151.26L53.6341 151.326L53.6491 137.144L78.0625 137.079L78.0811 151.322L83.4924 151.31L83.4984 81.8353L117.394 81.8237L117.418 72.0767C115.759 71.749 26.2333 72.0623 18.8434 72.1408C17.7064 72.1529 16.5106 72.1378 15.3818 72.1757C14.5057 72.2049 14.5048 72.1325 14.4178 72.997C14.2456 74.7079 14.2324 80.2743 14.3379 81.7799V81.7799Z" fill="white"/>
<path id="path164" fill-rule="evenodd" clip-rule="evenodd" d="M10.412 114.031L35.9379 114.082C36.9099 119.942 34.7948 131.306 33.4621 137.243L7.85576 137.069L10.412 114.031ZM3.2971 45.7975L2.68691 46.1374L2.81178 47.9685C2.71698 49.0914 4.31787 71.9576 4.43137 73.9962C4.92317 82.8361 5.40378 91.7716 5.40958 100.7C5.41758 113.284 4.13118 126.643 2.12819 139.029L0.0410156 150.65L5.44757 150.552C5.79087 148.431 6.81588 141.476 7.47448 139.966C10.5184 139.891 31.5389 139.582 32.8721 139.885C32.9305 141.77 32.9938 148.975 33.577 150.184C34.516 150.976 37.6458 150.649 39.0087 150.642C38.8913 149.112 38.6433 147.84 38.6077 146.087C38.3793 134.876 39.93 133.972 41.0892 124.403C41.6718 119.595 41.1128 118.414 41.2758 115.079C41.2542 115.032 41.2263 114.978 41.2118 114.936C41.1972 114.894 41.1687 114.841 41.1523 114.789C40.9433 114.121 41.0199 113.744 40.9945 113.005C40.8438 111.092 40.0739 108.906 39.4006 107.341C38.9914 106.39 37.2777 103.285 36.7038 102.669L10.9439 102.51C10.668 97.3547 10.6581 92.0983 10.3966 86.9215C10.1358 81.7635 9.89927 76.6102 9.59257 71.4967C9.29607 66.5546 8.68847 53.2699 8.03667 48.7596C7.43547 44.6 4.3721 45.8231 3.2971 45.7975Z" fill="white"/>
<path id="path166" fill-rule="evenodd" clip-rule="evenodd" d="M97.4694 136.919C97.0986 135.28 96.8271 133.115 96.4996 131.36C95.5667 126.358 94.1441 118.86 95.1317 114.07C97.2854 113.83 120.347 113.92 120.584 114.152C120.703 114.267 121.599 124.592 121.731 125.781L123.199 137.061C119.128 137.311 114.416 137.136 110.275 137.154C107.148 137.168 100.07 137.52 97.4694 136.919V136.919ZM122.946 50.0842L122.537 53.5549L120.48 90.043C120.305 94.1518 120.3 98.378 120.053 102.495L94.2451 102.717C92.6896 105.577 90.6154 108.516 90.0225 112.377C89.5538 115.429 89.6846 122.526 90.0823 125.626C90.6014 129.671 91.6559 133.484 92.1599 137.542C92.4296 139.714 92.4522 141.864 92.4542 144.121C92.4552 145.267 92.4502 146.422 92.4028 147.567C92.355 148.723 92.1459 149.598 92.0727 150.642C98.0567 150.667 97.5978 150.934 97.8258 147.895C98.0243 145.25 98.1209 142.5 98.1766 139.784L123.492 140.016C123.89 140.478 124.048 141.957 124.187 142.69L125.618 150.633L131.041 150.632C130.906 148.998 130.244 146.518 129.93 144.779C128.816 138.598 127.934 133.019 127.212 126.694C124.962 106.974 125.435 93.1485 126.635 73.503C126.755 71.5416 128.377 48.7107 128.269 47.4708L128.353 45.982C127.72 45.9787 127.602 46.0484 127.125 45.8008C125.353 45.8243 124.836 45.2532 123.856 46.6097C123.199 47.5182 122.85 48.778 122.946 50.0847V50.0842Z" fill="white"/>
<path id="path168" fill-rule="evenodd" clip-rule="evenodd" d="M128.269 47.4703C128.289 47.4341 128.322 47.3409 128.329 47.3616C128.331 47.3675 128.65 46.8531 128.427 45.8552L127.125 45.8003C127.602 46.0479 127.72 45.9782 128.353 45.9815L128.269 47.4703Z" fill="white"/>
<path id="path170" fill-rule="evenodd" clip-rule="evenodd" d="M122.537 53.5551L122.947 50.0845C122.738 50.3898 122.814 50.1623 122.716 50.7141C122.661 51.0218 122.64 51.3546 122.632 51.6602C122.615 52.2988 122.537 52.9346 122.537 53.5551Z" fill="white"/>
<path id="path172" fill-rule="evenodd" clip-rule="evenodd" d="M2.81224 47.9683L2.68716 46.1373L3.29835 45.7974L2.56055 45.9221C2.50556 46.4524 2.51888 46.4502 2.56856 46.96L2.81224 47.9683Z" fill="white"/>
<path id="path174" fill-rule="evenodd" clip-rule="evenodd" d="M41.2764 115.08C41.2684 114.656 41.2502 114.289 41.209 113.866C41.1964 113.737 41.1859 113.571 41.1624 113.46C41.0906 113.123 41.0232 113.069 40.9946 113.005C41.0201 113.745 40.9433 114.121 41.1527 114.789C41.1691 114.842 41.1976 114.895 41.2123 114.936C41.2268 114.978 41.2547 115.032 41.2764 115.08V115.08Z" fill="white"/>
</g>
<path id="path177" fill-rule="evenodd" clip-rule="evenodd" d="M51.1306 56.8629L80.0626 56.8318C80.01 56.8715 78.3382 57.719 77.8617 57.8977C70.325 60.7251 67.677 57.986 67.6898 61.8469C67.702 65.5411 67.2587 64.975 69.8023 66.85C70.264 67.1903 71.5447 68.0829 71.7728 68.4091L59.4248 68.4061C59.8146 67.8465 62.9192 65.8967 63.2842 65.3008C63.6506 64.7027 63.5035 62.7925 63.5066 61.9852C63.5221 57.8602 60.9632 60.7994 53.4545 57.934C52.9974 57.7595 51.1564 56.8663 51.1306 56.8626V56.8629ZM43.4126 44.1238L43.4066 41.2148C44.3271 41.5026 45.2403 42.5155 45.7418 43.095C47.9311 45.625 51.7888 45.5419 54.5311 42.8128C55.9702 41.3805 57.7201 39.7458 60.1267 41.8998C61.4846 43.1153 62.6533 44.9063 65.598 44.9095C70.4302 44.9147 70.3652 40.1926 74.213 41.0155C76.4535 41.4946 77.8573 45.9598 82.6969 44.7391C83.7248 44.4799 84.8397 43.7895 85.3901 43.1664C85.5948 42.9346 85.6323 42.868 85.8486 42.6579C86.4399 42.0839 87.0158 41.4475 87.788 41.2071L87.782 54.3147L43.4223 54.3232L43.4126 44.1238ZM86.76 38.8059C83.6876 40.8383 83.2676 42.4384 81.1233 42.3971C78.6097 42.3487 78.0421 39.8256 75.6687 38.7991L86.76 38.8059ZM71.1175 38.8011C70.6283 39.1514 70.2305 39.3103 69.7326 39.7377C69.2937 40.1146 69.0004 40.3923 68.597 40.8021C64.8129 44.6461 63.3688 40.8936 60.0768 38.8022L71.1175 38.8011ZM55.5305 38.8274C52.828 39.9187 51.1361 45.0684 46.9684 40.7686C46.0927 39.8652 45.607 39.5809 44.4283 38.793L55.5305 38.8274ZM50.871 27.6446C51.2552 27.9244 51.8933 29.0532 52.3415 29.4864C54.4305 31.5051 56.8672 30.6167 58.5034 28.2353C61.7951 23.4447 61.0938 30.5694 65.5986 30.563C67.6816 30.56 68.5804 29.1077 69.4155 27.8828C72.3504 23.5775 72.0017 31.22 76.8569 30.5211C78.9106 30.2256 79.2103 28.7163 80.3472 27.6452L80.3452 36.2876L50.8488 36.283L50.871 27.6446ZM79.764 24.5068C79.5003 24.7621 79.1234 25.0875 78.8517 25.3587C78.4951 25.7146 78.367 25.9486 78.0649 26.3605C77.6188 26.9686 77.1265 28.0952 76.1875 28.0409C75.0601 27.9759 74.7428 26.0817 72.7659 24.5128L79.764 24.5068ZM69.1092 24.5445C68.3205 25.0439 67.9878 25.5363 67.4325 26.3066C67.0142 26.8869 66.4146 28.0426 65.598 28.0438C64.3792 28.0456 64.0222 25.9483 62.0883 24.5068L69.1092 24.5445ZM58.4252 24.5203C57.7173 25.069 57.285 25.5383 56.7393 26.3341C54.3195 29.8621 54.5178 27.4475 51.4352 24.5083L58.4252 24.5203ZM58.6369 17.9589L72.5603 18.0217L72.5623 19.253L72.5663 21.9955L58.6286 21.9608L58.6369 17.9589ZM58.6488 13.6413L72.5562 13.673L72.5698 15.4427L58.6252 15.398L58.6488 13.6413ZM62.5026 3.16601C64.199 2.66731 64.2105 4.56839 65.3746 4.77989C66.8744 5.05249 66.6307 3.1653 68.227 3.088C69.8756 3.00831 71.6149 5.36398 68.5385 8.72635C68.2092 9.08635 66.3813 10.6269 65.7876 10.7931C65.1664 10.967 63.402 9.42285 63.0009 9.07045C60.96 7.27657 59.8649 3.9414 62.5026 3.16601V3.16601ZM69.1346 0.56543H67.7314C67.3785 0.725928 66.9778 0.769628 66.564 0.979126C66.1829 1.17202 65.9474 1.37672 65.5985 1.55852C65.2604 1.37852 65.0077 1.16832 64.6309 0.980526C64.3137 0.822427 63.9057 0.705028 63.6505 0.56543H62.0592C60.7027 1.30902 60.3122 1.18762 59.4114 2.34901C57.9203 4.2715 58.3017 6.78897 59.5353 8.82855C60.155 9.85294 60.9543 10.3777 61.4724 11.1206C56.4853 11.2482 56.0964 10.3526 56.1204 13.894C56.1387 16.5939 56.1321 19.3013 56.1295 22.0017C47.2657 21.8096 48.383 21.7912 48.3344 25.3241C48.2843 28.9716 48.3364 32.6409 48.3414 36.2922C41.8552 36.2734 40.9123 35.4962 40.9085 38.495L40.9065 54.3249C39.9186 54.3345 36.4052 54.1959 35.744 54.392C34.7696 54.6809 33.8929 56.8603 36.7423 56.8339C40.2148 56.8017 43.7121 56.8203 47.1859 56.8349C50.0735 59.7504 52.6764 60.6046 56.8768 61.4915C57.9936 61.7273 60.0477 61.8403 60.9813 62.1242L60.9763 64.0949C60.3964 64.3654 58.213 66.1345 57.328 66.7715C55.9253 67.7811 54.1303 68.7481 54.3416 69.9326C54.5226 70.947 55.4345 70.9269 56.5345 70.9185L65.7348 70.9275C67.7977 70.9277 69.8605 70.9355 71.9246 70.9274C72.9828 70.9234 74.0423 70.9146 75.1056 70.9244C77.4557 70.9458 77.096 69.1607 76.311 68.5892L71.9061 65.294C70.0931 63.853 70.1384 64.4684 70.1929 62.6617C70.2166 61.8731 70.4158 62.0644 72.0667 61.8778C75.459 61.4944 80.1332 60.2524 82.7095 58.0801C83.2279 57.643 83.5013 57.2964 84.011 56.8361C87.4846 56.8176 90.9819 56.8048 94.4546 56.8339C97.298 56.8577 96.4272 54.6881 95.451 54.3935C94.8108 54.2003 91.2602 54.3333 90.2877 54.3264C90.305 50.0648 90.2562 45.7883 90.2982 41.5327C90.3087 40.4692 90.2882 39.4098 90.2892 38.353C90.2897 37.8479 90.3427 37.3084 90.1154 36.9206C89.3988 35.6979 85.3447 36.2847 82.8538 36.2926C82.8776 32.6007 82.9038 28.8691 82.8598 25.1856C82.8196 21.7911 83.884 21.811 75.068 22.0021C75.059 19.3079 75.0581 16.5942 75.0761 13.906C75.0851 12.4565 75.2829 11.2306 73.7121 11.1389C72.4338 11.0644 71.0207 11.1517 69.7203 11.121C70.4945 10.0455 72.6716 8.51016 72.7459 5.51728C72.8303 2.11972 70.7036 1.42102 69.1341 0.56583L69.1346 0.56543Z" fill="white"/>
</g>
</svg>
