<svg width="147" height="135" viewBox="0 0 147 135" fill="none" xmlns="http://www.w3.org/2000/svg">
<path fill-rule="evenodd" clip-rule="evenodd" d="M8.2434 122.499C9.79409 124.488 13.1966 125.645 14.5568 126.462C13.8223 126.927 7.69689 129.448 6.5401 129.79C5.3134 130.152 5.1575 129.733 5.5824 128.599C5.8893 127.781 6.19719 127.201 6.49429 126.484L8.2434 122.499ZM13.3169 109.963C15.3953 112.313 15.316 113.619 19.8368 116.519C24.5408 119.536 26.3962 119.222 28.8836 120.475C28.5089 120.774 22.889 123.07 22.2451 123.191C19.0371 123.79 8.80697 120.529 10.4171 116.733L13.3169 109.963ZM17.8073 99.0767C17.8426 99.115 17.9 99.1201 17.915 99.1898C18.1146 100.12 17.5307 98.6507 18.3944 99.7914L20.0532 101.993C20.9265 103.073 21.6561 103.569 22.8376 104.557C23.3066 104.949 23.6522 105.286 24.2283 105.712L29.1723 108.692C29.7425 108.983 30.3036 109.262 30.8715 109.563C33.9071 111.17 41.8316 113.492 44.8634 113.947L43.7931 114.61C43.3299 114.79 42.98 114.944 42.5832 115.1C39.8202 116.19 37.482 117.587 35.104 117.303C31.5459 116.878 27.4675 115.911 24.5572 114.363C20.894 112.414 17.8583 109.72 16.2529 106.242C15.2512 104.072 15.3263 104.833 16.7366 101.439C17.0881 100.593 17.3649 99.8449 17.8073 99.0767V99.0767ZM23.7946 84.1086C23.8289 84.1477 23.8799 84.1583 23.8938 84.229L24.5921 85.2496C24.7268 85.457 24.7597 85.5139 24.9345 85.7717L29.8881 91.5054C31.6667 93.1488 33.0706 94.4379 35.1717 95.835L38.7267 98.0586C39.2077 98.3111 39.5591 98.4902 40.1182 98.8072C44.917 101.528 51.9074 103.95 57.243 105.006C59.3849 105.431 61.8233 105.704 63.9671 106.176C63.1311 106.742 58.4193 108.53 57.0684 109.054C55.8071 109.543 54.8006 109.988 53.5771 110.489C50.5675 111.719 36.8749 107.334 33.91 106.083C28.5194 103.808 22.9728 100.214 20.4599 94.7191C19.7227 93.1072 20.2451 92.8464 20.8636 91.246C21.4969 89.6076 23.0368 85.291 23.7946 84.1086V84.1086ZM99.2765 77.5659C103.446 78.3154 108.638 83.2416 108.101 87.7675C107.531 92.563 100.466 94.4273 97.7455 87.6129C96.4261 84.3082 97.4987 79.8806 99.2765 77.5659ZM28.285 73.8394L29.172 74.8996C29.5176 75.32 29.7691 75.502 30.0846 75.9055C30.692 76.6823 31.2707 77.4216 32.0418 78.0265C35.3023 80.5845 35.2534 80.729 38.9891 82.8319C40.6063 83.7422 40.0985 83.3103 41.2077 84.6698L44.9211 89.0891L49.3409 92.5725C50.7417 93.5301 54.0101 96.5828 55.9211 97.7491C57.4583 98.6874 59.4097 100.097 61.0647 100.767C61.6889 101.02 63.2308 101.645 63.7123 102.017C60.4377 102.137 52.8878 99.8631 50.0926 98.882C40.2826 95.4387 31.1427 89.1509 26.5269 79.8822C25.8636 78.5503 27.0309 76.9262 27.8824 74.7177L28.285 73.8394ZM31.4924 65.7949C31.9581 66.9168 32.3259 68.792 32.7608 70.0186C33.2156 71.3007 34.1276 72.9761 34.4443 74.1459C33.3438 73.3441 32.1571 71.7594 31.3164 70.4037C30.4721 69.0422 29.6444 68.2189 31.4924 65.7949V65.7949ZM71.8613 43.597C81.4433 42.0289 85.023 56.9167 74.245 59.0654C64.25 61.0578 61.5538 45.2836 71.8613 43.597ZM52.4486 49.7393L59.7102 52.6966C61.0919 53.4703 60.6592 53.163 61.1143 54.7079C62.2304 58.496 64.2356 60.6486 67.5035 62.0388C73.3689 64.5342 72.1496 60.6893 77.2962 67.6252L79.3977 70.6509C80.2381 71.8921 81.3414 73.6034 81.9146 74.9286C77.3549 76.9536 74.927 78.9085 71.5161 82.0193L68.1989 85.7647C65.9832 88.548 69.1304 90.7736 70.9668 89.1729C71.409 88.7875 71.5651 88.5211 71.857 88.1378C72.7132 87.0142 74.3252 85.5461 75.3442 84.561C77.0582 82.904 81.4636 79.5521 83.88 78.8201C85.5318 82.6484 87.3918 88.6068 86.02 93.3321C82.7364 104.643 66.843 99.6097 59.0753 94.6046C52.2401 90.2005 52.0528 89.3578 46.9163 84.5267C46.2392 83.8899 46.4455 83.8755 45.9416 83.3568C45.3511 82.7488 45.4545 83.0232 44.9512 82.2251C44.5395 81.5721 44.4718 81.4218 44.0353 80.9885C43.1031 80.0633 41.1778 77.0947 40.4116 75.8771C36.7745 70.0984 32.1702 59.1996 36.732 52.7844C36.7692 52.7322 36.879 52.5842 36.9159 52.5327C39.3464 49.1397 44.1024 48.4206 48.1295 49.057C47.9273 49.7856 47.4413 50.6589 47.1693 51.4764C46.4324 53.6914 44.7911 58.8629 47.8303 59.3033C48.7771 59.4405 49.6592 58.9852 50.0581 58.2243C50.3458 57.6755 50.3313 54.3595 52.4486 49.7393V49.7393ZM54.8791 28.4493C54.8415 28.4979 54.7903 28.5581 54.7625 28.5923C54.7351 28.6262 54.6814 28.6935 54.6481 28.7346L54.4291 29.0048C51.1214 33.0694 47.5987 32.6363 46.7508 30.1269C46.1547 28.3626 48.3907 26.9956 49.9027 26.8612C52.3144 26.647 53.3854 27.763 54.8791 28.4493V28.4493ZM54.9144 13.5605C54.2429 14.5524 51.9687 15.8458 50.3906 16.2092C48.2943 16.6919 45.703 15.9159 45.5804 13.9739C45.4213 11.4522 52.3745 9.26602 54.9144 13.5605V13.5605ZM57.5797 10.2306C55.2765 8.41082 54.1585 5.95605 47.9872 6.98254C34.4223 9.23882 42.6393 27.3447 56.4521 17.7225C57.1225 19.3976 57.0283 22.5072 56.483 24.1836C51.7415 21.664 47.2053 20.7831 43.2481 25.3059C42.2866 26.4049 41.6783 28.2961 41.9681 30.241C42.7804 35.6932 49.7974 37.9741 55.3597 33.5724C55.8954 33.1485 56.1917 32.6203 56.8798 32.0491C58.0875 35.0668 55.3983 38.2514 53.5051 40.2793C52.2721 41.6002 51.271 43.1599 50.3296 44.7587C44.1153 44.2589 40.4759 43.9714 35.7924 47.3458C32.0506 50.0417 31.0728 54.6348 29.2443 58.7904C25.5553 67.1741 22.3768 75.892 18.7839 84.4633C15.1503 93.1318 11.9835 101.433 8.40038 110.001C7.36318 112.482 0.847015 127.25 0.966214 129.443C1.11261 132.135 2.70161 133.969 5.40979 134.152C7.26428 134.277 10.444 132.602 12.1517 131.929L60.0271 112.233C61.1444 111.745 62.2597 111.354 63.2301 110.943L82.4764 103.036C90.1254 99.8684 91.3051 91.7022 90.1245 84.5241C89.7108 82.0087 88.7114 79.8573 88.012 77.523C89.6954 76.8558 92.4037 76.5864 94.5038 76.6676C92.4642 81.3483 91.7853 86.1743 94.4278 90.8938C99.7337 100.37 113.556 95.8626 111.823 84.8507C111.182 80.7791 108.193 77.7146 105.276 75.5682L104.632 75.1356C104.32 74.9395 104.127 74.8093 103.827 74.6537C103.256 74.358 102.779 74.2071 102.244 73.8603C102.273 73.8155 102.317 73.6916 102.333 73.7275C102.349 73.7629 102.405 73.6241 102.428 73.6011C102.563 73.4692 102.608 73.4295 102.785 73.2956L105.802 71.6416C111.625 69.4538 117.829 72.41 122.239 76.1337C125.086 78.5372 128.507 81.6622 131.476 83.5735C135.465 86.1416 139.312 87.576 144.123 85.3458C145.349 84.7771 146.571 84.4657 146.088 82.6628C145.789 81.5505 144.492 80.8047 143.029 81.2701C141.591 81.7278 141.162 82.4812 139.04 82.288C137.151 82.116 135.56 81.1515 134.124 80.0817C132.264 78.6963 127.871 75.2894 126.326 73.7523C123.812 71.2519 119.22 68.4955 115.956 67.4422C109.525 65.367 104.104 67.189 99.4683 70.6425C99.0114 70.9829 98.7414 71.4476 98.3443 71.8601C97.2901 72.9553 96.4431 72.3327 94.5722 72.3264C91.1367 72.315 89.2491 72.9246 86.1954 73.6047C85.1335 71.4571 83.8937 69.6894 82.5847 67.6716C81.8905 66.6014 79.2536 63.1881 78.2066 62.3719C80.8033 60.4219 82.4105 59.7984 83.9056 56.3562C85.2443 53.2737 85.1278 49.4079 83.9171 46.4451C80.6422 38.4302 69.2307 36.782 63.6316 43.3529C62.1578 45.0826 61.7458 46.0328 60.9734 48.56L54.8683 46.035L57.5465 42.3931C59.8268 39.3903 61.8689 37.1698 61.499 32.7977C61.3128 30.5968 60.6369 29.3008 59.7731 27.8871C61.5444 21.5829 61.7332 20.9073 59.9765 14.4159C61.3888 12.2372 65.2926 6.77534 64.2879 3.88797C63.9444 2.90068 63.162 2.33389 61.7211 2.73089C60.5097 3.06469 60.4363 3.83357 60.1069 4.97246C59.8365 5.90745 59.4329 6.96404 59.0706 7.77703C58.7111 8.58382 58.1623 9.63461 57.5797 10.2306V10.2306Z" fill="white"/>
<path fill-rule="evenodd" clip-rule="evenodd" d="M88.3395 14.8179C88.9733 14.5115 90.3701 13.9646 90.7621 13.5993C91.6532 12.7688 92.0479 9.08638 92.141 7.67389L93.2638 8.67509C93.5996 9.06609 93.8065 9.30868 94.1575 9.69647C94.5875 10.1718 95.4849 11.2498 95.951 11.5372C97.4978 12.4907 100.472 11.1131 102.385 11.308C98.8375 17.7086 98.887 14.8326 101.988 21.8318C100.236 21.7926 97.7516 20.8419 96.0692 21.0394C95.5775 21.2975 91.8296 24.7533 91.6781 25.0082C90.8288 22.156 91.8909 20.0941 90.4311 18.7762C89.1517 17.6211 87.1054 17.0824 85.787 16.1267L88.3395 14.8179ZM87.3331 10.598C85.6813 11.1419 84.1388 12.0482 82.6088 12.7141C81.1303 13.3577 78.7369 14.0784 78.5535 15.7228C78.3328 17.7017 81.0309 18.3642 82.2847 19.0183C83.8383 19.8286 85.3559 20.8015 86.8645 21.4416C87.0444 23.4337 87.2673 25.4922 87.4803 27.4693C87.6844 29.3636 87.7548 31.7712 90.053 31.5275C91.2229 31.4034 96.5989 25.3688 97.4239 25.3631C98.4278 25.7434 101.348 26.2239 102.614 26.479C104.781 26.9157 106.494 27.766 107.57 25.9085C108.353 24.5562 106.789 22.2363 106.288 21.0906C105.649 19.6284 104.757 17.9902 104.25 16.5544C105.621 13.7662 108.983 9.35118 108.47 7.5971C107.535 4.39683 99.3466 8.34598 97.7913 7.36219L94.6929 3.80653C93.4722 2.42354 92.338 0.722849 90.9347 0.66935C88.6662 0.58285 88.7221 2.89383 88.3619 4.78851C88.0053 6.6643 87.5334 8.73499 87.3331 10.598V10.598Z" fill="white"/>
<path fill-rule="evenodd" clip-rule="evenodd" d="M102.98 46.3451C103.935 46.504 105.205 47.1993 106.282 46.9178C106.749 46.7955 108.163 45.679 108.586 45.3068C108.777 46.587 108.317 47.6426 109.117 48.6396C109.502 49.1185 109.716 49.2146 110.141 49.5249L111.047 50.3395C110.116 50.7505 108.766 50.9049 108.121 51.5042C107.444 52.1324 107.358 53.5034 106.974 54.4126L106.429 53.8735C104.219 51.2057 105.491 52.4475 101.911 51.9816C104.688 48.5653 103.414 49.0462 102.98 46.3451V46.3451ZM105.691 42.5865C102.159 41.6479 95.7772 37.8197 98.2506 44.7784C98.6627 45.9378 99.1223 47.2417 99.4456 48.415C98.4087 50.1256 95.726 52.6986 95.8236 54.1835C96.0136 57.0723 100.861 56.3695 103.398 56.3475C103.687 57.0829 104.775 58.486 105.306 59.2765C105.993 60.2981 106.512 61.7079 108.045 61.6737C110.14 61.627 110.304 59.055 111.376 56.0111C111.663 55.1962 111.578 55.6768 111.648 55.0128C112.805 54.8026 114.291 54.3088 115.478 53.9348C117.02 53.4488 118.131 53.436 118.332 51.6166C118.494 50.1542 117.393 49.5941 116.139 48.6802C115.101 47.9231 114.068 47.037 113.196 46.5489C113.245 44.9844 113.287 43.558 113.369 41.9991C113.419 41.0362 113.511 40.5528 113.095 39.9503C111.279 37.3208 108.344 40.85 105.691 42.5865V42.5865Z" fill="white"/>
<path fill-rule="evenodd" clip-rule="evenodd" d="M123.082 26.3904C122.233 22.2178 128.591 20.9863 129.354 25.1774C130.104 29.2977 123.901 30.4165 123.082 26.3904ZM125.271 18.3452C121.493 18.7213 118.226 22.4385 118.779 26.7719C119.268 30.6059 122.832 33.7678 127.263 33.1675C133.214 32.3611 136.336 25.0468 130.926 19.9754C129.604 18.7359 127.536 18.1197 125.271 18.3452V18.3452Z" fill="white"/>
<path fill-rule="evenodd" clip-rule="evenodd" d="M67.2604 70.1946C69.353 69.2928 69.9378 72.2866 68.5342 72.8512C66.7269 73.5782 65.3121 71.0342 67.2604 70.1946ZM66.8955 65.8153C59.3787 67.0415 61.244 78.5607 68.8487 77.215C76.2505 75.9052 74.4757 64.579 66.8955 65.8153Z" fill="white"/>
</svg>
