
<svg version="1.1" xmlns="http://www.w3.org/2000/svg" xmlns:xlink="http://www.w3.org/1999/xlink" x="0px" y="0px" viewBox="0 0 1000 1000"  xml:space="preserve">
<g><g><g><path fill="red" d="M674.1,701.7c-9.9-9.9-23.8-15.3-38.9-15.3c-16,0-31.4,6.2-42.3,17.1L524,772.4l-18.6-10.3c-40.9-22.7-97-53.8-156.2-113.1c-59.5-59.4-90.6-115.6-113.4-156.7l-10.1-18.1l69-69c22.8-22.9,23.6-59.3,1.7-81.2L168.9,196.6c-9.9-9.9-23.7-15.4-38.9-15.4c-16,0-31.4,6.2-42.3,17.2l-31.3,31.5l-2.9,4.8c-11.7,14.9-21.2,31.7-28.3,50c-6.6,17.4-10.7,34-12.7,50.6C-3.9,471.8,59.1,597.2,229.9,768c202.4,202.4,371.6,218.2,418.7,218.2c8.1,0,12.9-0.5,14.3-0.6c17.4-2.1,34-6.3,50.8-12.8c18.1-7.1,34.9-16.6,49.8-28.2l7.1-5.6l29.3-28.7c22.8-22.8,23.5-59.2,1.6-81.1L674.1,701.7z M784,894.6l-22.5,22.3c-10.7,10.3-29,24.7-55.8,35.2c-15.1,5.8-30,9.6-45.3,11.4c-0.8,0.1-4.3,0.3-9.9,0.3c-45.3,0-208.5-15.3-404.8-211.5C52.4,559,21.6,446.9,34.7,337.9c1.7-14.9,5.4-29.7,11.3-45.2c10.6-27.1,25.1-45.4,35.3-56l22.2-22.5c6.8-6.8,16.6-10.8,26.6-10.8c9.1,0,17.3,3.2,23.1,9l127.5,127.4c13.1,13.2,12.4,35.5-1.7,49.7l-79.6,79.5l-1.6,1.6l4.4,7.5c4.5,7.5,9.1,15.9,14.2,25.1c23.4,42.2,55.5,100,117.1,161.6c61.7,61.7,119.3,93.6,161.4,116.9c9.6,5.3,17.9,9.9,25.3,14.3l7.5,4.5l81.1-81.2c6.8-6.8,16.5-10.7,26.5-10.7c9.1,0,17.4,3.2,23.1,9l127.4,127.3C798.8,858.2,798,880.4,784,894.6z"/>
<path fill="red" d="M422.2,445l-2.2,4.8l5.2,1.3c31.2,7.9,59.7,24,82.3,46.6c21.6,21.6,37.4,48.7,45.7,78.1l0.9,3.1l5,0.2c1.3,0,2.5,0.1,3.8,0.2c3.1,0.3,6.1,0.6,9.1,1c2.7,0.3,5.4,0.7,8.1,0.9l6.1,0.5l-1.4-6c-9-37.9-28.2-72.4-55.5-99.8c-25.9-25.9-58.5-44.6-94.2-53.9l-4.2-1.1l-1.2,4.1C427.5,432.2,425,438.9,422.2,445z"/>
<path fill="red" d="M434.1,321.4l0.4,3.2l3.2,0.7c61,11.3,116,40,159.1,83.1c49.5,49.5,79.7,112.7,87.4,182.8l0.4,3.3l9.6,1.4c3.1,0.2,6.1,0.2,9.2,0.2c2.3-0.1,4.6,0,6.8,0.1l5,0.2l-0.5-5c-7.7-78.8-41-149.5-96.2-204.8c-49.4-49.4-112.5-81.6-182.5-93.2l-6-1l0.9,6C432.2,306.1,433.3,313.8,434.1,321.4z"/>
<path fill="red" d="M715.8,289.4c-82-82-191.3-130.8-307.7-137.5l-5.5-0.4l0.9,5.4c1.2,7.4,2.6,14.9,4.1,22.5l0.7,3.3l3.4,0.2c106.8,7.3,207.1,52.8,282.4,128.1c74.1,74.1,119.4,173.3,127.5,279.1l0.3,4.4l4.3-0.3c4.8-0.3,9.6-0.7,14.5-1.1l12-1l-0.4-4.4C843.7,474.8,795.2,368.9,715.8,289.4z"/>
<path fill="red" d="M989.6,574.9C978,430.4,915.2,294.5,813,192.2C703.9,83.1,558.6,19.8,403.9,14l-4.3-0.2l-0.3,4.3c-0.3,4.9-0.5,9.8-0.7,14.7l-0.5,11.9l4.4,0.2c147,5.4,285,65.5,388.6,169.2c97.1,97.1,156.7,226.2,167.8,363.5l0.4,4.5l4.5-0.4c6.5-0.7,13.2-1.2,19.9-1.7l6.2-0.5L989.6,574.9z"/></g></g><g></g><g></g><g></g><g></g><g></g><g></g><g></g><g></g><g></g><g></g><g></g><g></g><g></g><g></g><g></g></g>
</svg>