<svg width="12" height="14" viewBox="0 0 12 14" fill="none" xmlns="http://www.w3.org/2000/svg">
<path fill-rule="evenodd" clip-rule="evenodd" d="M8.7182 12.632L8.86812 12.6331L8.78451 13.1324C8.52047 12.9628 8.50817 13.2479 8.55561 12.9049C8.55906 12.88 8.7141 12.6376 8.7182 12.632ZM7.76456 12.8145C7.49888 13.1903 7.79716 13.007 7.31902 13.1114C7.35354 12.7109 6.8927 12.8617 7.76456 12.8145ZM5.3792 13.0271C6.12246 12.7229 5.68277 12.9591 5.87129 13.0271C5.54656 13.2159 5.65736 13.1554 5.3792 13.0271ZM4.75858 13.0271C4.75225 12.8068 5.02784 12.8691 4.9816 13.0125C4.90842 13.2393 4.7609 13.1081 4.75858 13.0271ZM9.45927 12.8822C9.0652 12.9311 9.22762 12.6684 9.41872 12.6847L9.4715 12.7364C9.47617 12.7513 9.51862 12.8748 9.45927 12.8822V12.8822ZM10.0073 12.0047C9.89081 12.5246 10.229 12.245 9.61444 12.3891L10.0073 12.0047ZM2.50716 11.6426C3.06803 11.8679 2.78993 11.6409 2.80264 11.9271C2.5369 11.9014 2.62385 12.0988 2.50716 11.6426ZM10.157 11.8347L10.4478 11.5695C10.3858 11.8009 10.4363 12.039 10.157 11.8347ZM2.06738 11.3426C2.03841 10.7916 2.70225 11.2869 2.25578 11.3632C2.21477 11.3702 2.07458 11.4795 2.06738 11.3426ZM10.7287 11.4107C10.6885 11.2003 10.5062 10.704 11.0608 11.0673C11.4283 11.3081 10.8221 11.3332 10.7287 11.4107ZM11.0849 10.5657C11.0867 10.5261 11.2639 10.5658 11.2754 10.572C11.2788 10.5739 11.5258 10.26 11.3491 10.6298C11.3486 10.6308 11.3282 10.6523 11.3258 10.6524C11.3222 10.6527 11.2734 10.6514 11.2677 10.6504C11.0518 10.6131 11.0697 10.8983 11.0849 10.5657ZM11.7841 9.5212C11.4037 9.95947 11.7126 9.5986 11.3776 9.79479C11.5462 9.37244 11.2422 9.63126 11.7841 9.5212ZM1.05341 9.49835C1.19633 9.57673 1.29183 9.56982 1.17182 9.74111C1.15849 9.76014 1.07982 9.79636 1.04336 9.83008L1.05341 9.49835ZM1.43307 8.1593C1.19442 8.07244 0.712483 8.2279 1.16011 7.73813L1.43307 8.1593ZM0.961979 7.32716C1.42033 7.46098 1.1688 7.25884 1.35917 7.62995C0.80284 7.43154 1.09535 7.68904 0.961979 7.32716ZM1.16446 6.02992C1.99643 5.67447 1.55552 5.99593 1.62749 6.02992C1.07351 6.27532 1.46769 6.18866 1.16446 6.02992ZM10.8787 5.56308C10.3052 5.33365 10.8117 5.30869 10.8787 5.24497C11.3986 5.85552 10.9092 5.53192 10.8787 5.56308ZM2.0187 5.11361L2.41884 5.09382L2.10443 5.50383L2.0187 5.11361ZM10.5275 4.72004C10.4669 5.17743 10.6531 4.83097 10.3362 5.13268C10.2162 4.94889 10.1124 5.37214 10.2542 4.90822C10.3169 4.70322 10.2184 4.86817 10.5275 4.72004V4.72004ZM2.41884 5.09382C2.36509 4.46935 2.43483 4.81904 2.55917 4.68427C2.64029 4.85025 2.65574 4.71582 2.60468 4.92079C2.59889 4.94403 2.45914 5.06176 2.41884 5.09382V5.09382ZM7.81392 4.72947C7.85361 4.71623 7.91419 4.69281 7.93254 4.68895L8.24075 4.67813C8.59366 4.97513 8.99294 5.51488 9.39767 5.77076C9.28713 6.20025 9.29579 6.06349 8.9773 6.44258L9.46149 6.19475C9.76512 6.04414 9.46188 6.16191 9.76184 6.0556C10.0916 6.5496 10.1617 6.24333 10.0755 6.8223L10.3743 7.06653C10.2066 7.68743 10.3145 7.44502 10.3502 7.97102C10.3706 8.27214 10.3099 8.42334 10.2802 8.79099C10.1331 9.19682 10.5212 9.42769 10.1413 10.0432C9.95777 10.3406 9.68079 10.7193 9.17908 10.9145C9.37406 11.204 8.66067 11.1781 9.39432 11.1415C9.34731 12.082 9.53329 11.0968 9.04952 11.4252L8.56014 12.1201L8.15241 11.8869C7.7656 12.3268 5.62307 12.0427 4.83365 12.0357L4.73682 11.4666C4.70581 11.4952 4.67787 11.5434 4.66046 11.5604C4.64448 11.5761 4.60509 11.6283 4.58574 11.6445C4.41442 11.7879 4.60887 12.1143 3.93535 11.4077C2.38125 9.77742 2.64359 10.1871 2.67732 8.49199C2.75259 4.70911 3.22108 6.70651 4.36126 4.58356C4.67569 4.74951 4.43774 4.58625 4.74685 4.84938C4.87875 4.96167 4.85526 4.97454 4.95433 5.07912L5.09121 4.57626C5.93376 4.57394 7.14887 4.42853 7.81392 4.72947V4.72947ZM10.0566 4.33437C10.0996 4.76963 10.153 4.46161 9.92211 4.68266C9.283 4.1303 9.91087 4.42871 10.0566 4.33437ZM8.7182 12.632L4.7295 12.6396L4.18692 13.0727C4.16843 13.0394 4.15201 12.9949 4.14099 12.9706L3.61423 12.1431C3.29936 11.8205 3.16198 11.7009 2.8808 11.3725C1.56378 9.83416 2.02019 10.4046 1.36043 10.3011C1.63 9.72808 1.81459 10.5396 1.79282 9.01239C1.78504 8.46506 1.73802 7.88733 1.83813 7.35621C1.58079 7.06114 1.63559 7.057 1.67829 6.6778C0.961487 6.47027 1.23345 6.95877 0.932322 6.28972C1.20595 6.25332 1.41615 6.23535 1.80504 6.2067C2.44424 5.65258 3.38187 4.42416 4.08801 4.0561C4.08805 4.05616 4.36065 4.16361 3.98497 4.59228L2.69851 5.87135C1.97618 6.52561 2.22607 7.32441 2.22024 8.36232C2.21088 10.0356 1.81877 9.63648 2.81582 10.7613L4.12276 12.029C4.48441 12.4296 4.26598 11.9683 4.38406 12.5467C5.3004 12.1945 8.53168 12.355 8.5642 12.3658C8.70196 12.4653 8.63507 12.5339 8.7182 12.632V12.632ZM9.74528 4.04269C9.63762 4.16403 9.95424 4.27019 9.43647 4.238L9.74528 4.04269ZM3.49523 3.82884L3.29265 4.16547C3.05704 3.83736 3.0082 4.07893 3.49523 3.82884ZM8.97414 3.88508C9.20147 3.3416 8.81092 3.78383 9.47633 3.61564C9.28725 3.82813 9.82737 3.95151 8.97414 3.88508ZM3.49523 3.82884L3.61448 3.47667C3.84603 3.63967 3.83381 3.26035 3.79441 3.6781C3.76606 3.97866 3.89695 3.71391 3.49523 3.82884ZM8.86812 12.6331C8.74006 12.0441 9.20421 11.8115 9.6676 11.2483C9.88637 10.9824 10.0553 10.8091 10.2292 10.6122C10.7465 10.0262 10.2809 10.3128 11.0067 10.0638C10.546 9.74229 10.6712 9.95538 10.6325 9.27527C10.6148 8.96546 10.6356 8.63496 10.62 8.32189C10.5855 7.62857 10.4281 6.83813 10.8678 6.41865L10.6531 6.32768C9.94491 5.95157 8.32533 4.50474 8.48876 3.97224C7.5814 4.30414 8.47534 4.22451 6.17563 4.22681C5.09585 4.2279 4.42355 4.41696 4.135 3.8407L7.98494 3.82947C8.2283 3.60911 8.28218 4.02091 7.92013 3.27282C8.80808 3.68436 8.39949 3.48545 8.94746 3.50272C8.41058 4.02747 8.85482 4.25196 9.41488 4.74212C9.82914 5.1047 10.3181 5.66579 10.7668 5.9813C11.1943 5.88175 11.1043 5.7022 11.4297 5.74898L11.4314 6.36481C11.4259 6.37919 11.4045 6.41314 11.3969 6.42924C11.1156 7.02208 11.1613 6.91083 11.1249 7.62768C11.1013 8.09065 11.0936 8.55241 11.0906 9.01558C11.0831 10.1629 11.2751 9.86009 11.6486 10.1764C10.0768 10.7554 10.6528 10.9738 9.05099 12.4887C9.02992 12.5086 8.97948 12.5454 8.96159 12.5613C8.94341 12.5774 8.9023 12.6114 8.86812 12.6331V12.6331ZM4.73224 3.54244C5.00681 3.32019 4.2883 3.55479 5.15108 3.24897C4.93168 3.60731 5.25011 3.48954 4.73224 3.54244ZM6.04206 2.40584C6.02104 2.38814 5.969 2.35754 5.95296 2.33793C5.94027 2.32241 5.91141 2.28859 5.90517 2.27258C5.79289 1.98457 6.09863 1.95086 6.18503 1.84623L7.01798 1.9575C6.99003 2.40662 7.07284 2.15674 6.72562 2.40174L6.93416 2.52025C6.95905 2.53281 7.01515 2.56075 7.04005 2.57287C7.19644 2.64901 7.21657 2.64303 7.355 2.70309C6.87624 3.01755 7.27611 3.04064 7.54828 3.54384L5.51347 3.53216L6.81093 2.79047C6.36555 2.51983 5.98361 2.65827 5.54685 2.84341C5.53402 2.63795 5.16576 2.58501 6.31183 2.55192L6.04206 2.40584ZM5.79213 0.432003C6.81599 -0.0831991 7.81127 0.866406 7.05044 1.3483C6.38456 1.77005 5.46874 1.28699 5.79213 0.432003ZM2.0187 5.11361C1.98233 5.13219 1.93146 5.1571 1.90965 5.16932L1.41346 5.4912C2.02441 5.66986 1.6898 5.42498 2.01947 5.89149L1.11539 5.70324C0.763241 6.11302 0.749427 6.94965 0.961979 7.32716C0.778 7.50123 0.896984 7.24271 0.797607 7.6064L0.870682 9.9363C1.43218 11.0427 1.50617 10.8979 2.11049 10.9031C1.73876 11.3916 1.8739 10.9028 1.88276 11.3406C1.88856 11.6276 2.89387 12.3019 3.16088 12.5866C3.44183 12.8861 3.15709 12.7505 3.60281 13.05C4.15306 13.4198 7.26907 13.3322 8.17486 13.3181C8.66117 13.3105 8.40241 13.3383 8.82199 13.2555C9.06416 13.2077 8.87489 13.2478 9.09696 13.1831C9.13923 13.1708 9.18512 13.1556 9.22533 13.142C9.93748 12.9022 9.46102 13.1989 9.92738 12.7326L11.7316 10.6278C12.0784 9.95869 11.8485 10.0037 11.8154 9.58525C11.813 9.55478 11.7998 9.54083 11.7841 9.5212C12.4453 8.50718 11.3639 9.21596 11.5011 8.30623C11.7335 8.69172 11.4059 8.55157 11.9004 8.57481C11.8968 8.34317 11.9203 7.78451 11.8816 7.71232C11.2229 7.57128 11.6134 7.77434 11.2414 7.45528C11.6066 7.16177 10.7 7.16253 11.8498 7.2342L11.827 7.15474C11.127 7.00043 11.508 7.31939 11.2523 6.80738C11.6241 6.52342 10.6914 6.51673 11.8686 6.5928C11.9198 6.38685 11.9285 6.26355 11.9176 6.04184C11.8878 5.4329 12.0742 5.94486 11.064 5.10963L10.5275 4.72004C10.5124 4.68957 10.4891 4.64871 10.4774 4.62994C9.97202 3.81502 8.99855 2.8495 7.59341 3.20039C7.865 2.64265 7.81491 2.26217 7.20046 1.62427C7.49536 1.35251 7.77118 1.24317 7.56109 0.643089C7.07556 -0.840098 3.88134 0.564668 5.7358 1.62427C5.21281 2.05328 5.80905 1.76449 4.98661 2.67878C5.17325 3.01278 5.0631 2.85155 5.35984 3.10724C4.83059 3.20896 4.95029 3.09821 4.59695 3.35213L4.19213 3.21246L3.35464 3.26696C3.16218 3.65526 3.04889 3.79772 2.68506 4.17878C2.38652 4.49147 2.10611 4.65497 2.0187 5.11361V5.11361Z" fill="white"/>
<path fill-rule="evenodd" clip-rule="evenodd" d="M6.5643 9.5226C6.51742 9.54968 6.34798 9.65505 6.31005 9.67856C6.27125 9.70259 6.20975 9.74116 6.17057 9.76545C6.1297 9.79079 6.07475 9.82686 6.02529 9.85626C7.13989 9.78148 7.13585 9.74834 7.26979 8.94968C6.62828 8.34291 5.02918 7.83814 6.01679 6.97971C7.53813 6.69969 7.44665 7.03566 7.61564 7.83277C8.03457 7.61694 7.86679 7.64677 8.14371 7.35599C8.44742 7.61721 8.32957 7.54201 8.73568 7.72411C8.44603 7.2553 8.46622 7.53896 8.36392 7.04686C7.39716 7.40009 8.27742 7.12164 7.34248 6.73393C7.0085 6.59542 6.53893 6.57049 6.19705 6.66489C4.56302 7.11611 5.5379 8.1205 5.60012 8.23287C4.94093 8.68077 5.00634 8.26168 4.81104 8.95783C5.32974 8.86513 5.0008 8.82877 5.63391 8.59029C5.72522 8.57948 7.67692 8.78452 6.5643 9.5226V9.5226Z" fill="white"/>
<path fill-rule="evenodd" clip-rule="evenodd" d="M6.98362 7.8234C6.45009 7.62934 6.77643 7.80268 6.39966 7.49988C6.74224 7.11263 6.90337 7.49135 6.98362 7.8234V7.8234ZM5.24481 9.9204C6.02677 10.2984 7.28129 10.4799 8.01124 9.7993C9.07519 8.80727 7.71135 8.26006 7.61551 7.83287C7.29197 7.88191 7.45311 7.80822 7.19873 7.88689C6.87469 7.14092 7.39207 7.22494 6.28232 7.12109C6.05542 7.90825 6.54611 7.86558 7.23331 8.25899C8.62308 9.05461 7.60945 10.343 5.905 9.97576C4.94093 9.76803 5.44554 9.47246 4.57141 9.11087C4.70241 9.62977 4.81116 9.62133 5.24481 9.9204Z" fill="white"/>
<path fill-rule="evenodd" clip-rule="evenodd" d="M7.28119 11.0719L6.85555 10.9899C7.18764 10.7772 6.45137 10.7268 7.20063 10.8325C7.53669 10.88 7.3717 10.7091 7.28119 11.0719V11.0719ZM7.28119 11.0719C7.82776 10.9875 7.54751 11.2255 7.65749 10.8244C7.51414 10.76 7.73535 10.5762 6.56581 10.7257C7.0415 11.762 6.16695 11.2834 6.29402 11.9316C7.61565 12.227 6.48004 11.69 7.28119 11.0719V11.0719Z" fill="white"/>
<path fill-rule="evenodd" clip-rule="evenodd" d="M7.21134 5.22815C6.81666 5.33178 6.96383 5.17212 6.8408 5.56348C6.44459 5.21735 7.0092 5.13633 6.16113 5.37107C6.39071 5.84185 6.06726 5.47365 6.71278 5.8727C7.04561 6.07844 6.70375 6.12687 7.25548 5.87827L7.21134 5.22815Z" fill="white"/>
<path fill-rule="evenodd" clip-rule="evenodd" d="M7.2113 5.22814C7.77289 5.22787 7.70312 5.08135 7.81394 4.72949L7.48994 4.91419C7.46456 4.92785 7.39951 4.9612 7.37642 4.97349C7.35333 4.9858 7.29926 5.01158 7.26159 5.03153L6.41847 4.7927L5.91565 5.06861C6.49301 4.97544 6.64338 4.97775 7.2113 5.22814Z" fill="white"/>
<path fill-rule="evenodd" clip-rule="evenodd" d="M8.33997 11.2003C8.92862 11.068 8.9972 10.9684 9.14649 10.4298C8.2949 10.7002 8.8 10.5202 8.33997 11.2003Z" fill="white"/>
<path fill-rule="evenodd" clip-rule="evenodd" d="M3.62144 9.40656C3.53323 9.03369 3.63094 9.07495 3.28254 8.79004C3.14071 8.89889 3.04404 8.88608 3.21072 9.15828C3.43817 9.52974 3.20708 9.26097 3.62144 9.40656V9.40656Z" fill="white"/>
<path fill-rule="evenodd" clip-rule="evenodd" d="M7.85217 10.2997C8.29653 10.151 8.43847 10.1225 8.49581 9.6886C8.05906 9.94354 8.10305 9.98405 7.85217 10.2997V10.2997Z" fill="white"/>
<path fill-rule="evenodd" clip-rule="evenodd" d="M3.12378 7.19512L3.78949 6.4823C3.22539 6.63588 3.21325 6.83594 3.12378 7.19512Z" fill="white"/>
<path fill-rule="evenodd" clip-rule="evenodd" d="M5.00012 10.788C5.03226 10.5553 4.99693 10.6878 4.91027 10.5712C4.6726 10.8529 4.62169 10.7131 4.87988 11.0726C4.9093 11.0278 4.99459 10.8282 5.00012 10.788Z" fill="white"/>
<path fill-rule="evenodd" clip-rule="evenodd" d="M5.16209 5.59515C5.17699 5.6854 5.62439 6.06285 5.40067 5.65682C5.36304 5.58853 5.10469 5.24777 5.16209 5.59515Z" fill="white"/>
<path fill-rule="evenodd" clip-rule="evenodd" d="M8.15237 11.8871L7.98495 11.4755C7.95817 11.5121 7.86 11.4804 7.91506 11.6757C8.0531 12.1653 7.94003 11.7314 8.15237 11.8871Z" fill="white"/>
<path fill-rule="evenodd" clip-rule="evenodd" d="M8.0498 6.81351C7.71871 6.40542 8.04003 6.69008 7.46997 6.50745L8.0498 6.81351Z" fill="white"/>
<path fill-rule="evenodd" clip-rule="evenodd" d="M9.68774 7.90283L9.69161 8.76136C10.0393 8.40704 9.8935 8.23641 9.68774 7.90283Z" fill="white"/>
</svg>
