<svg width="67" height="65" viewBox="0 0 67 65" fill="none" xmlns="http://www.w3.org/2000/svg">
<path d="M66.2356 48.1125C66.0937 47.9738 65.9007 47.8957 65.6993 47.8957C60.2043 47.8957 56.2795 43.8748 54.0337 35.9446C52.3085 29.8532 52.2922 23.6608 52.2922 23.5984V18.2312C52.292 8.17847 43.8621 0 33.5 0C23.138 0 14.708 8.17847 14.708 18.2312V23.5989C14.708 23.6607 14.6917 29.8532 12.9665 35.9446C10.7207 43.8748 6.79588 47.8957 1.30092 47.8957C1.09949 47.8957 0.906372 47.9737 0.764631 48.1125C0.622739 48.2512 0.543859 48.4391 0.54537 48.6346C0.546579 48.7731 0.604303 52.0525 3.30539 54.2993C5.41413 56.0534 8.48635 56.6581 12.4365 56.0973C19.6195 55.0774 21.3008 56.4879 23.4242 59.9495C26.362 64.7395 31.906 64.9999 33.5002 64.9999C35.2698 64.9999 40.6384 64.7392 43.5762 59.9495C45.6996 56.4879 47.3808 55.0774 54.5638 56.0972C58.514 56.6579 61.5862 56.0532 63.6949 54.2991C66.396 52.0524 66.4538 48.7729 66.455 48.6344C66.4563 48.4393 66.3774 48.2513 66.2356 48.1125ZM62.6969 53.1982C60.9343 54.6549 58.2715 55.1421 54.7825 54.6467C47.0896 53.5546 44.7958 55.0944 42.2774 59.2C39.5157 63.7026 33.5002 63.5361 33.5002 63.5361C33.5002 63.5361 27.4958 63.7212 24.7226 59.2C22.2043 55.0946 19.9098 53.5544 12.2176 54.6469C8.72857 55.1422 6.06572 54.6549 4.30302 53.1983C2.80431 51.9596 2.30444 50.2747 2.13852 49.3337C7.88931 48.9402 12.1292 44.4568 14.4309 36.3075C16.2047 30.0267 16.2192 23.8574 16.2191 23.5986V18.2315C16.2191 8.98682 23.9712 1.46599 33.5 1.46599C43.0289 1.46599 50.7809 8.98682 50.7809 18.2312V23.5978C50.7808 23.8572 50.7953 30.0266 52.569 36.3073C54.8707 44.4566 59.1104 48.9401 64.8612 49.3334C64.6951 50.2754 64.1953 51.9599 62.6969 53.1982Z" fill="white"/>
<path d="M27.0268 19.166C25.0601 19.166 23.46 17.3194 23.46 15.0498C23.46 12.7801 25.0601 10.9337 27.0268 10.9337C28.9935 10.9337 30.5936 12.7801 30.5936 15.0498C30.5936 17.3194 28.9936 19.166 27.0268 19.166ZM27.0268 12.3997C25.8933 12.3997 24.9711 13.5885 24.9711 15.0498C24.9711 16.5111 25.8933 17.7 27.0268 17.7C28.1602 17.7 29.0825 16.5112 29.0825 15.0498C29.0825 13.5885 28.1604 12.3997 27.0268 12.3997Z" fill="white"/>
<path d="M39.9731 19.166C38.0062 19.166 36.4061 17.3194 36.4061 15.0498C36.4061 12.7801 38.0062 10.9337 39.9731 10.9337C41.9398 10.9337 43.5399 12.7801 43.5399 15.0498C43.5399 17.3194 41.9398 19.166 39.9731 19.166ZM39.9731 12.3997C38.8394 12.3997 37.9172 13.5885 37.9172 15.0498C37.9172 16.5111 38.8394 17.7 39.9731 17.7C41.1066 17.7 42.0288 16.5112 42.0288 15.0498C42.0288 13.5885 41.1067 12.3997 39.9731 12.3997Z" fill="white"/>
<path d="M33.5 25.9398C30.0432 25.9398 26.9618 24.3838 25.6494 21.9757C25.5256 21.7485 25.5335 21.4751 25.6702 21.2549C25.807 21.0347 26.0526 20.9001 26.3174 20.9001H40.6824C40.9473 20.9001 41.1929 21.0347 41.3296 21.2549C41.4664 21.475 41.4742 21.7485 41.3505 21.9757C40.0382 24.3838 36.9568 25.9398 33.5 25.9398ZM27.8003 22.3661C29.0945 23.6606 31.2208 24.4736 33.5002 24.4736C35.7795 24.4736 37.9056 23.6606 39.1999 22.3661H27.8003Z" fill="white"/>
</svg>
