<svg width="53" height="116" viewBox="0 0 53 116" fill="none" xmlns="http://www.w3.org/2000/svg">
<path fill-rule="evenodd" clip-rule="evenodd" d="M15.0169 26.4724C17.3125 28.979 14.7471 32.5366 11.1477 31.9927C4.68919 31.0168 1.30671 24.1207 5.78086 18.9806C7.36888 17.1562 10.0497 15.5202 14.1214 15.4359C14.0686 16.7438 14.5073 17.5898 15.3635 18.1378C16.6813 18.9816 17.5053 18.7159 19.1521 18.5179C24.2397 22.0786 21.6568 28.9509 19.0816 29.9738C19.358 27.4158 18.8831 25.9279 17.4051 24.3246C16.4848 23.3263 13.7077 21.7945 11.1439 22.2556C7.2018 22.9643 7.94613 28.2156 12.2759 27.8979C13.9196 27.7772 14.3926 26.833 15.0169 26.4724ZM29.8779 4.25901C30.9455 4.54166 32.173 5.78634 32.7247 6.76173C34.9531 10.7021 31.5622 15.3305 26.323 15.2469C23.0082 15.1939 20.4689 13.1645 19.7288 10.896C18.735 7.85104 20.8862 4.94758 23.0879 4.2059C23.2991 8.41955 29.606 8.47736 29.8779 4.25901ZM28.7317 17.9624C28.0066 19.4035 27.1418 20.1048 26.6403 22.0857C25.6566 25.9709 27.3255 30.1552 30.8263 32.6166C31.29 32.9427 32.2707 33.4009 32.6354 33.7903C31.8751 34.5304 31.1948 35.3698 30.8598 36.4378L30.4973 37.3214C30.535 37.3416 30.4473 37.3942 30.4159 37.4267C29.0976 35.0798 23.7411 34.8032 22.1379 37.3788L21.8011 36.7115C21.0092 34.1755 20.3307 34.3439 19.639 33.4226C20.0589 33.0059 20.8607 32.6055 21.4408 32.1239C24.7891 29.345 26.3403 25.6265 25.1038 21.6013C24.8768 20.8627 24.5511 20.1362 24.1859 19.5089C23.7856 18.8218 23.2696 18.3105 22.973 17.665C25.5665 18.0792 25.9139 18.1726 28.7317 17.9624ZM38.7088 15.5865C46.6163 15.8007 50.8069 22.5149 48.287 27.4512C47.181 29.6174 44.7999 31.7247 41.4607 32.1801C38.6908 32.5576 35.4119 30.3538 37.6125 26.5793C38.0626 26.8138 38.2506 27.2415 38.8852 27.5937C39.318 27.8338 39.9071 28.0415 40.5548 28.0778C45.0326 28.3291 45.4248 22.7058 41.1084 22.3687C38.1531 22.1378 35.984 23.6653 34.9416 24.8486C33.3033 26.7084 33.3103 28.252 33.7818 30.8083C31.9125 30.0491 29.9287 27.5035 29.7684 24.8299C29.59 21.8477 31.3336 19.5057 33.1176 18.3286C34.5115 18.5597 35.1797 19.4329 37.1219 18.4497C38.1601 17.9241 38.7525 17.0816 38.7088 15.5865ZM35.7738 35.4274C37.4317 34.7848 40.1983 35.4208 42.6364 34.9235C57.9082 31.8086 54.7227 11.1414 36.0187 12.883C36.5415 11.0908 37.0945 10.206 36.7105 8.02516C36.0121 4.05816 31.9353 0.522141 26.4121 0.531543C18.2255 0.545538 14.1825 7.91458 16.8673 12.7036C16.0249 12.7808 14.5197 12.524 13.3917 12.5719C0.679067 13.1119 -3.94014 26.7115 4.96453 32.5869C6.33238 33.4895 7.87018 34.2827 9.95412 34.7299C12.3806 35.2505 15.1213 34.6573 16.8121 35.301C16.2747 35.804 15.5222 36.2613 15.2952 37.1691C14.8423 38.981 16.3572 40.5885 18.3321 40.6911C19.657 40.7602 20.283 40.228 21.1149 39.8933C21.207 40.8551 21.4072 41.2008 21.7092 42.0044L30.798 42.0371C31.1042 41.2257 31.3095 40.9637 31.4157 39.9368C31.7815 40.0981 31.5168 39.9807 31.7814 40.1269C33.5544 41.1079 35.3528 41.0821 36.6642 39.6684C38.3026 37.902 36.9154 36.4432 35.7738 35.4274Z" fill="white"/>
<path fill-rule="evenodd" clip-rule="evenodd" d="M22.5203 48.9942L22.3102 90.4364L29.6557 90.4823L29.9063 49.0239L22.5203 48.9942Z" fill="white"/>
<path fill-rule="evenodd" clip-rule="evenodd" d="M9.02921 105.229C9.03888 103.623 10.2744 104.126 13.4646 104.438C17.0052 104.784 17.8283 104.466 17.8199 105.86C17.8093 107.633 18.0128 107.942 16.4397 108.072C14.6731 108.218 10.2216 108.768 9.16036 108.45C8.95843 106.971 9.02006 106.749 9.02921 105.229ZM1.5312 113.7C1.52167 114.498 1.3554 114.87 1.90313 115.291C2.45118 115.62 6.10423 115.654 6.59761 115.287C7.20313 114.903 6.88902 114.16 7.12122 113.36L8.68207 113.02C9.30851 112.341 8.66559 111.837 9.94785 111.646L17.4028 111.033C18.2861 111.464 17.5085 111.526 19.0952 111.541C21.6123 111.567 21.356 111.316 21.3668 109.056C21.3741 107.488 21.554 102.409 21.2384 101.521C20.6181 101.292 20.2264 101.296 19.3313 101.287C17.502 101.268 18.2835 101.444 17.5742 101.673C16.9819 101.864 9.88017 101.095 9.57374 100.955C8.84136 100.62 9.27408 100.162 8.78591 99.7425C8.48022 99.4795 7.72016 99.4688 7.27332 99.2908C7.0428 98.7913 7.09307 97.9371 6.93652 97.3993C5.97737 97.0019 2.79374 96.9972 1.77014 97.3325C1.54982 98.0823 1.51967 100.144 1.79425 100.863C2.95666 101.263 4.86289 100.736 5.34924 101.457C5.59171 101.818 5.69492 110.497 5.18036 111.437C2.34699 112.189 1.57562 110.249 1.5312 113.7Z" fill="white"/>
<path fill-rule="evenodd" clip-rule="evenodd" d="M22.2349 100.556C22.0551 103.177 22.1768 106.115 22.1606 108.772C22.1517 110.2 21.9556 111.42 22.7542 112.457C23.2988 113.165 24.4131 113.875 25.9016 113.86C29.9012 113.818 29.5376 110.301 29.5474 108.672C29.5629 106.07 29.7261 103.153 29.5685 100.588L22.2349 100.556Z" fill="white"/>
<path fill-rule="evenodd" clip-rule="evenodd" d="M19.8407 45.5471C20.4897 45.7575 27.5357 45.691 28.8656 45.699C30.0273 45.706 32.2221 45.9551 33.057 45.4292C34.0379 44.8113 33.8523 43.3236 32.7272 42.9294C31.9076 42.6421 25.0865 42.7645 23.6041 42.7555C22.3542 42.748 20.2694 42.4134 19.3444 43.0896C18.3352 43.8272 18.7602 45.1968 19.8407 45.5471Z" fill="white"/>
<path fill-rule="evenodd" clip-rule="evenodd" d="M22.3525 93.7106C22.8927 95.3361 22.7661 95.7001 22.3381 97.274L29.5018 97.316C29.0383 95.6647 29.0265 95.394 29.5257 93.7528L22.3525 93.7106Z" fill="white"/>
<path fill-rule="evenodd" clip-rule="evenodd" d="M21.9089 97.9974C21.156 98.1304 20.8206 99.0255 21.3637 99.543C21.9788 100.129 29.7505 99.8685 29.8726 99.8432C30.6406 99.6841 31.0158 98.7955 30.4323 98.2846C29.8604 97.7841 22.5206 97.8895 21.9089 97.9974Z" fill="white"/>
<path fill-rule="evenodd" clip-rule="evenodd" d="M21.9499 91.1722C21.1767 91.3318 20.9031 92.2538 21.4465 92.7284C22.0557 93.2603 29.637 93.0648 29.8944 93.021C30.6802 92.8872 31.0992 92.0854 30.478 91.498C29.9461 90.9954 28.7237 91.1781 27.9104 91.1746C26.8408 91.1701 22.6724 91.0229 21.9499 91.1722Z" fill="white"/>
<path fill-rule="evenodd" clip-rule="evenodd" d="M22.2198 46.4201C21.4287 46.5798 21.1816 47.5074 21.7337 47.9784C22.3705 48.5219 29.9143 48.3149 30.154 48.2717C30.9109 48.1352 31.3851 47.3557 30.7588 46.7508C30.2336 46.2432 28.9972 46.4335 28.1801 46.4298C27.1179 46.4252 22.9307 46.2768 22.2198 46.4201Z" fill="white"/>
</svg>
