<svg width="132" height="107" viewBox="0 0 132 107" fill="none" xmlns="http://www.w3.org/2000/svg">
<path fill-rule="evenodd" clip-rule="evenodd" d="M53.6481 36.9073C54.5752 36.7109 77.3572 36.7385 78.0751 36.9198L78.0811 86.587L53.6575 86.6624L53.6481 36.9073ZM14.3379 36.7799L48.2163 36.8263L48.2304 106.26L53.6341 106.326L53.6491 92.1441L78.0625 92.0786L78.0811 106.322L83.4924 106.31L83.4984 36.8353L117.394 36.8237L117.418 27.0767C115.759 26.749 26.2333 27.0623 18.8434 27.1408C17.7064 27.1529 16.5106 27.1378 15.3818 27.1757C14.5057 27.2049 14.5048 27.1325 14.4178 27.997C14.2456 29.7079 14.2324 35.2743 14.3379 36.7799V36.7799Z" fill="white"/>
<path fill-rule="evenodd" clip-rule="evenodd" d="M10.412 69.0311L35.9379 69.0822C36.9099 74.9417 34.7948 86.3062 33.4621 92.243L7.85576 92.0688L10.412 69.0311ZM3.2971 0.797505L2.68691 1.1374L2.81178 2.96848C2.71698 4.09137 4.31787 26.9576 4.43137 28.9962C4.92317 37.8361 5.40378 46.7716 5.40958 55.6997C5.41758 68.2838 4.13118 81.6427 2.12819 94.0291L0.0410156 105.65L5.44757 105.552C5.79087 103.431 6.81588 96.4755 7.47448 94.9658C10.5184 94.8912 31.5389 94.582 32.8721 94.8853C32.9305 96.7695 32.9938 103.975 33.577 105.184C34.516 105.976 37.6458 105.649 39.0087 105.642C38.8913 104.112 38.6433 102.84 38.6077 101.087C38.3793 89.8756 39.93 88.9717 41.0892 79.4035C41.6718 74.5953 41.1128 73.4142 41.2758 70.0794C41.2542 70.0318 41.2263 69.9776 41.2118 69.9363C41.1972 69.8945 41.1687 69.8414 41.1523 69.7891C40.9433 69.1209 41.0199 68.7445 40.9945 68.0052C40.8438 66.0916 40.0739 63.9064 39.4006 62.3409C38.9914 61.3895 37.2777 58.285 36.7038 57.6695L10.9439 57.51C10.668 52.3547 10.6581 47.0983 10.3966 41.9215C10.1358 36.7635 9.89927 31.6102 9.59257 26.4967C9.29607 21.5546 8.68847 8.26993 8.03667 3.75958C7.43547 -0.399986 4.3721 0.823105 3.2971 0.797505Z" fill="white"/>
<path fill-rule="evenodd" clip-rule="evenodd" d="M97.4694 91.9193C97.0986 90.2798 96.8271 88.1149 96.4996 86.3595C95.5667 81.3583 94.1441 73.8599 95.1317 69.0701C97.2854 68.8303 120.347 68.9204 120.584 69.1516C120.703 69.267 121.599 79.5921 121.731 80.7806L123.199 92.0613C119.128 92.3112 114.416 92.1356 110.275 92.154C107.148 92.168 100.07 92.5204 97.4694 91.9193V91.9193ZM122.946 5.08418L122.537 8.55485L120.48 45.043C120.305 49.1518 120.3 53.378 120.053 57.4948L94.2451 57.7172C92.6896 60.5771 90.6154 63.5161 90.0225 67.377C89.5538 70.4291 89.6846 77.526 90.0823 80.6256C90.6014 84.6707 91.6559 88.4842 92.1599 92.5423C92.4296 94.7135 92.4522 96.8638 92.4542 99.1209C92.4552 100.267 92.4502 101.422 92.4028 102.567C92.355 103.723 92.1459 104.598 92.0727 105.642C98.0567 105.667 97.5978 105.934 97.8258 102.895C98.0243 100.25 98.1209 97.4999 98.1766 94.7844L123.492 95.0159C123.89 95.4776 124.048 96.9567 124.187 97.6896L125.618 105.633L131.041 105.632C130.906 103.998 130.244 101.518 129.93 99.7787C128.816 93.5976 127.934 88.0188 127.212 81.6942C124.962 61.974 125.435 48.1485 126.635 28.503C126.755 26.5416 128.377 3.7107 128.269 2.47081L128.353 0.982028C127.72 0.978728 127.602 1.04843 127.125 0.800832C125.353 0.824331 124.836 0.253236 123.856 1.60972C123.199 2.51821 122.85 3.778 122.946 5.08469V5.08418Z" fill="white"/>
<path fill-rule="evenodd" clip-rule="evenodd" d="M128.269 2.47028C128.289 2.43408 128.322 2.34088 128.329 2.36158C128.331 2.36748 128.65 1.85308 128.427 0.855194L127.125 0.800293C127.602 1.04789 127.72 0.978189 128.353 0.981489L128.269 2.47028Z" fill="white"/>
<path fill-rule="evenodd" clip-rule="evenodd" d="M122.537 8.55514L122.947 5.08447C122.738 5.38977 122.814 5.16227 122.716 5.71407C122.661 6.02176 122.64 6.35457 122.632 6.66016C122.615 7.29876 122.537 7.93465 122.537 8.55514Z" fill="white"/>
<path fill-rule="evenodd" clip-rule="evenodd" d="M2.81224 2.96834L2.68716 1.13726L3.29835 0.797363L2.56055 0.922065C2.50556 1.45236 2.51888 1.45015 2.56856 1.96005L2.81224 2.96834Z" fill="white"/>
<path fill-rule="evenodd" clip-rule="evenodd" d="M41.2764 70.0796C41.2684 69.6563 41.2502 69.2894 41.209 68.866C41.1964 68.7375 41.1859 68.5709 41.1624 68.4603C41.0906 68.1227 41.0232 68.0694 40.9946 68.0054C41.0201 68.7447 40.9433 69.1211 41.1527 69.7893C41.1691 69.8416 41.1976 69.8947 41.2123 69.9365C41.2268 69.9778 41.2547 70.032 41.2764 70.0796V70.0796Z" fill="white"/>
</svg>
