<svg width="63" height="71" viewBox="0 0 63 71" fill="none" xmlns="http://www.w3.org/2000/svg">
<path fill-rule="evenodd" clip-rule="evenodd" d="M17.1306 56.8629L46.0626 56.8318C46.01 56.8715 44.3382 57.719 43.8617 57.8977C36.325 60.7251 33.677 57.986 33.6898 61.8469C33.702 65.5411 33.2587 64.975 35.8023 66.85C36.264 67.1903 37.5447 68.0829 37.7728 68.4091L25.4248 68.4061C25.8146 67.8465 28.9192 65.8967 29.2842 65.3008C29.6506 64.7027 29.5035 62.7925 29.5066 61.9852C29.5221 57.8602 26.9632 60.7994 19.4545 57.934C18.9974 57.7595 17.1564 56.8663 17.1306 56.8626V56.8629ZM9.41263 44.1238L9.40662 41.2148C10.3271 41.5026 11.2403 42.5155 11.7418 43.095C13.9311 45.625 17.7888 45.5419 20.5311 42.8128C21.9702 41.3805 23.7201 39.7458 26.1267 41.8998C27.4846 43.1153 28.6533 44.9063 31.598 44.9095C36.4302 44.9147 36.3652 40.1926 40.213 41.0155C42.4535 41.4946 43.8573 45.9598 48.6969 44.7391C49.7248 44.4799 50.8397 43.7895 51.3901 43.1664C51.5948 42.9346 51.6323 42.868 51.8486 42.6579C52.4399 42.0839 53.0158 41.4475 53.788 41.2071L53.782 54.3147L9.42233 54.3232L9.41263 44.1238ZM52.76 38.8059C49.6876 40.8383 49.2676 42.4384 47.1233 42.3971C44.6097 42.3487 44.0421 39.8256 41.6687 38.7991L52.76 38.8059ZM37.1175 38.8011C36.6283 39.1514 36.2305 39.3103 35.7326 39.7377C35.2937 40.1146 35.0004 40.3923 34.597 40.8021C30.8129 44.6461 29.3688 40.8936 26.0768 38.8022L37.1175 38.8011ZM21.5305 38.8274C18.828 39.9187 17.1361 45.0684 12.9684 40.7686C12.0927 39.8652 11.607 39.5809 10.4283 38.793L21.5305 38.8274ZM16.871 27.6446C17.2552 27.9244 17.8933 29.0532 18.3415 29.4864C20.4305 31.5051 22.8672 30.6167 24.5034 28.2353C27.7951 23.4447 27.0938 30.5694 31.5986 30.563C33.6816 30.56 34.5804 29.1077 35.4155 27.8828C38.3504 23.5775 38.0017 31.22 42.8569 30.5211C44.9106 30.2256 45.2103 28.7163 46.3472 27.6452L46.3452 36.2876L16.8488 36.283L16.871 27.6446ZM45.764 24.5068C45.5003 24.7621 45.1234 25.0875 44.8517 25.3587C44.4951 25.7146 44.367 25.9486 44.0649 26.3605C43.6188 26.9686 43.1265 28.0952 42.1875 28.0409C41.0601 27.9759 40.7428 26.0817 38.7659 24.5128L45.764 24.5068ZM35.1092 24.5445C34.3205 25.0439 33.9878 25.5363 33.4325 26.3066C33.0142 26.8869 32.4146 28.0426 31.598 28.0438C30.3792 28.0456 30.0222 25.9483 28.0883 24.5068L35.1092 24.5445ZM24.4252 24.5203C23.7173 25.069 23.285 25.5383 22.7393 26.3341C20.3195 29.8621 20.5178 27.4475 17.4352 24.5083L24.4252 24.5203ZM24.6369 17.9589L38.5603 18.0217L38.5623 19.253L38.5663 21.9955L24.6286 21.9608L24.6369 17.9589ZM24.6488 13.6413L38.5562 13.673L38.5698 15.4427L24.6252 15.398L24.6488 13.6413ZM28.5026 3.16601C30.199 2.66731 30.2105 4.56839 31.3746 4.77989C32.8744 5.05249 32.6307 3.1653 34.227 3.088C35.8756 3.00831 37.6149 5.36398 34.5385 8.72635C34.2092 9.08635 32.3813 10.6269 31.7876 10.7931C31.1664 10.967 29.402 9.42285 29.0009 9.07045C26.96 7.27657 25.8649 3.9414 28.5026 3.16601V3.16601ZM35.1346 0.56543H33.7314C33.3785 0.725928 32.9778 0.769628 32.564 0.979126C32.1829 1.17202 31.9474 1.37672 31.5985 1.55852C31.2604 1.37852 31.0077 1.16832 30.6309 0.980526C30.3137 0.822427 29.9057 0.705028 29.6505 0.56543H28.0592C26.7027 1.30902 26.3122 1.18762 25.4114 2.34901C23.9203 4.2715 24.3017 6.78897 25.5353 8.82855C26.155 9.85294 26.9543 10.3777 27.4724 11.1206C22.4853 11.2482 22.0964 10.3526 22.1204 13.894C22.1387 16.5939 22.1321 19.3013 22.1295 22.0017C13.2657 21.8096 14.383 21.7912 14.3344 25.3241C14.2843 28.9716 14.3364 32.6409 14.3414 36.2922C7.85524 36.2734 6.91232 35.4962 6.90852 38.495L6.90654 54.3249C5.91864 54.3345 2.40517 54.1959 1.74397 54.392C0.769574 54.6809 -0.107139 56.8603 2.74235 56.8339C6.21483 56.8017 9.71211 56.8203 13.1859 56.8349C16.0735 59.7504 18.6764 60.6046 22.8768 61.4915C23.9936 61.7273 26.0477 61.8403 26.9813 62.1242L26.9763 64.0949C26.3964 64.3654 24.213 66.1345 23.328 66.7715C21.9253 67.7811 20.1303 68.7481 20.3416 69.9326C20.5226 70.947 21.4345 70.9269 22.5345 70.9185L31.7348 70.9275C33.7977 70.9277 35.8605 70.9355 37.9246 70.9274C38.9828 70.9234 40.0423 70.9146 41.1056 70.9244C43.4557 70.9458 43.096 69.1607 42.311 68.5892L37.9061 65.294C36.0931 63.853 36.1384 64.4684 36.1929 62.6617C36.2166 61.8731 36.4158 62.0644 38.0667 61.8778C41.459 61.4944 46.1332 60.2524 48.7095 58.0801C49.2279 57.643 49.5013 57.2964 50.011 56.8361C53.4846 56.8176 56.9819 56.8048 60.4546 56.8339C63.298 56.8577 62.4272 54.6881 61.451 54.3935C60.8108 54.2003 57.2602 54.3333 56.2877 54.3264C56.305 50.0648 56.2562 45.7883 56.2982 41.5327C56.3087 40.4692 56.2882 39.4098 56.2892 38.353C56.2897 37.8479 56.3427 37.3084 56.1154 36.9206C55.3988 35.6979 51.3447 36.2847 48.8538 36.2926C48.8776 32.6007 48.9038 28.8691 48.8598 25.1856C48.8196 21.7911 49.884 21.811 41.068 22.0021C41.059 19.3079 41.0581 16.5942 41.0761 13.906C41.0851 12.4565 41.2829 11.2306 39.7121 11.1389C38.4338 11.0644 37.0207 11.1517 35.7203 11.121C36.4945 10.0455 38.6716 8.51016 38.7459 5.51728C38.8303 2.11972 36.7036 1.42102 35.1341 0.56583L35.1346 0.56543Z" fill="white"/>
</svg>
