<svg width="151" height="157" viewBox="0 0 151 157" fill="none" xmlns="http://www.w3.org/2000/svg">
<path fill-rule="evenodd" clip-rule="evenodd" d="M140.737 37.9C140.983 38.4216 141.317 38.7768 141.837 39.0386L144.088 36.9839L144.165 96.1799C142.639 95.7313 105.229 77.0381 103.79 76.3355L105.497 74.5237C105.127 73.727 105.024 74.0537 104.559 73.3318C103.606 73.7728 102.99 74.8668 102.059 75.4396L95.4824 72.2474C94.7786 71.9009 93.7224 71.6415 93.3744 70.9236L93.3644 10.5956C95.0995 11.125 98.1277 12.8525 99.8196 13.6818L141.393 34.2165C144.138 35.5644 144.132 35.1673 144.15 36.513C143.583 36.1843 143.513 36.0593 143.195 35.6492C142.586 35.8922 140.98 37.644 140.737 37.9H140.737ZM87.1943 8.06621C87.1046 9.0807 87.3192 8.4785 86.193 8.6729L85.3748 11.733C86.1727 11.9674 86.6173 12.2324 87.1844 11.9778L87.2066 75.4268C88.0569 76.2042 98.4591 81.0964 100.342 82.0249L136.902 100.062C137.697 100.451 139.741 101.257 140.261 101.938L138.266 102.307L138.469 103.94C139.361 103.872 141.322 103.656 141.687 103.005L141.809 102.637C141.816 102.614 141.817 102.552 141.837 102.517L150.289 106.673C150.526 99.7008 150.335 92.4979 150.335 85.5591L150.326 43.1538C150.326 39.6559 150.283 36.1338 150.333 32.6392C150.358 30.8443 150.828 31.4884 147.715 29.9589L94.4613 3.65235C92.7968 2.83116 88.6868 0.558977 87.207 0.16748L87.1943 8.06621Z" fill="white"/>
<path fill-rule="evenodd" clip-rule="evenodd" d="M65.7158 131.781L65.6986 136.632C63.4972 137.269 59.9534 138.91 57.6931 139.882C55.1531 140.976 34.901 149.44 33.9849 149.57L33.9872 144.85L65.7158 131.781ZM5.66534 129.101C6.55384 129.363 10.4715 132.185 11.5641 132.899C13.5778 134.213 15.3111 135.384 17.3074 136.723C18.9585 137.831 27.989 144.034 28.9238 144.409L28.9184 148.614C27.7015 148.139 24.2834 145.613 22.9851 144.744C21.0341 143.437 19.1786 142.182 17.2619 140.898C13.9466 138.677 8.67583 135.335 5.66884 133.148L5.66534 129.101ZM8.61873 124.774C9.37202 124.091 33.9913 114.004 37.3971 112.458C39.03 111.717 39.435 112.456 40.8323 113.386C43.8183 115.374 61.8847 126.619 62.6208 127.401C62.0008 127.888 49.9311 132.784 48.134 133.527C43.3568 135.503 38.4634 137.423 33.6822 139.522C31.15 140.633 31.8174 140.395 27.0089 137.153C24.4324 135.417 9.70732 125.775 8.61873 124.774V124.774ZM52.6159 114.83C52.9601 114.587 57.8466 112.343 58.2397 112.246C60.5944 111.667 63.5715 119.794 60.0452 119.531C59.5291 119.492 52.9432 115.208 52.6159 114.83ZM64.8414 111.539C64.4018 110.134 62.5543 108.404 61.2989 107.733C59.1822 106.602 62.223 106.52 59.0497 106.036L58.6405 107.043C56.4819 107.131 49.5897 110.287 47.8325 111.806C46.5114 111.239 43.9457 109.397 42.537 108.491C38.4227 105.845 39.4683 106.122 36.8501 107.225L0.62207 122.613L0.622669 135.79C1.75816 136.717 3.33245 137.647 4.62615 138.523L30.6999 155.995C31.4598 156.422 31.992 155.966 32.8707 155.595L61.2845 143.857C62.9186 143.193 64.406 142.536 66.0566 141.868C67.4236 141.315 69.408 140.353 70.7748 139.997L70.7216 126.455C68.9912 125.653 66.6083 123.528 64.9996 122.968C65.2644 121.914 65.4937 122.339 66.0434 121.037C67.088 118.562 65.7541 119.18 69.0863 118.385L68.8242 116.838L66.6488 117.087C66.5344 115.397 66.0309 114.476 65.8658 113.147L66.8544 112.165L65.8454 111.073C65.2057 111.31 65.5983 111.288 64.8414 111.539V111.539Z" fill="white"/>
<path fill-rule="evenodd" clip-rule="evenodd" d="M106.743 64.2353C108.917 64.0953 115.135 62.3997 116.537 62.2755C117.748 62.1683 116.954 62.2227 117.767 62.6081C118.548 61.6421 118.944 61.7803 120.548 61.4473C121.735 61.2008 122.779 60.9872 123.955 60.7464C126.185 60.2898 128.494 59.7259 130.662 59.378C130.039 58.1144 110.537 35.1898 108.346 32.5526C107.868 31.9772 107.372 31.2179 106.765 30.7729L106.743 64.2353Z" fill="white"/>
<path fill-rule="evenodd" clip-rule="evenodd" d="M82.7241 94.6123C83.2357 95.0419 83.2146 95.2452 83.8582 95.5516C84.3923 95.2251 85.7708 93.987 86.1322 93.252C85.775 92.7644 85.5053 92.435 84.978 92.1641C84.4281 92.6593 83.0514 93.7674 82.7241 94.6123V94.6123Z" fill="white"/>
<path fill-rule="evenodd" clip-rule="evenodd" d="M111.753 66.2326L112.726 67.3375C113.367 67.0168 114.684 65.6851 115.161 65.1311L114.128 63.8867C113.332 64.3143 112.369 65.3396 111.753 66.2326V66.2326Z" fill="white"/>
<path fill-rule="evenodd" clip-rule="evenodd" d="M68.2654 108.412C68.4914 109.07 68.8806 109.424 69.4203 109.72C69.9558 109.247 71.3546 108.091 71.678 107.27C71.2881 106.93 71.1842 106.704 70.5363 106.336L68.2654 108.412Z" fill="white"/>
<path fill-rule="evenodd" clip-rule="evenodd" d="M106.915 70.9236C107.249 71.4542 107.528 71.7784 108.113 72.0433L110.297 69.7977C110.062 69.2592 109.727 68.9076 109.189 68.6621C108.527 69.1302 107.267 70.2456 106.915 70.9236V70.9236Z" fill="white"/>
<path fill-rule="evenodd" clip-rule="evenodd" d="M67.2056 76.7835L68.8498 77.1523C69.1172 76.0983 69.6174 75.0047 69.5872 73.9256L68.0757 73.4858L67.2056 76.7835Z" fill="white"/>
<path fill-rule="evenodd" clip-rule="evenodd" d="M135.9 42.591L136.904 43.7959C137.603 43.4417 138.757 42.2072 139.285 41.4653L138.33 40.3545C137.597 40.6918 136.498 41.8329 135.9 42.591V42.591Z" fill="white"/>
<path fill-rule="evenodd" clip-rule="evenodd" d="M78.0923 37.7764L79.7661 38.1725L80.6105 34.8919L79.0027 34.5171L78.0923 37.7764Z" fill="white"/>
<path fill-rule="evenodd" clip-rule="evenodd" d="M72.7822 57.2263L74.2964 57.6678L75.1744 54.3878L73.5313 54.0107C73.2811 55.0682 72.7789 56.1426 72.7822 57.2263Z" fill="white"/>
<path fill-rule="evenodd" clip-rule="evenodd" d="M126.26 52.1601L127.322 53.2195C128.162 52.5471 128.825 51.729 129.658 51.0834C129.368 50.4528 128.966 50.1282 128.515 49.8047C127.853 50.2566 126.614 51.3996 126.26 52.1601Z" fill="white"/>
<path fill-rule="evenodd" clip-rule="evenodd" d="M63.7012 89.7551L65.2348 90.1352L66.0889 86.9009L64.4621 86.5234C64.2032 87.4776 63.6263 88.9892 63.7012 89.7551Z" fill="white"/>
<path fill-rule="evenodd" clip-rule="evenodd" d="M75.2559 89.6928C75.6433 89.9717 76.0794 90.3843 76.5845 90.5895C76.9825 90.1167 78.1913 88.6334 78.4721 87.9981C78.1387 87.6253 77.7654 87.2987 77.2912 87.0645C76.7408 87.5334 75.5883 88.9652 75.2559 89.6928V89.6928Z" fill="white"/>
<path fill-rule="evenodd" clip-rule="evenodd" d="M71.1543 94.9409C71.5488 95.3889 71.8146 95.6237 72.4125 95.882C73.118 95.115 73.8096 94.2059 74.3934 93.3967C73.9513 92.9064 73.6694 92.6033 73.0336 92.3843C72.5147 93.0358 71.467 94.3156 71.1543 94.9409Z" fill="white"/>
<path fill-rule="evenodd" clip-rule="evenodd" d="M81.7319 24.778L83.3448 25.1697L84.2515 21.9616L82.5951 21.5249L81.7319 24.778Z" fill="white"/>
<path fill-rule="evenodd" clip-rule="evenodd" d="M83.5613 18.1877L85.2183 18.6892L86.0579 15.3923L84.4578 15.0186L83.5613 18.1877Z" fill="white"/>
<path fill-rule="evenodd" clip-rule="evenodd" d="M61.7764 96.1815L63.3975 96.6652L64.2609 93.4981L62.6353 92.9668L61.7764 96.1815Z" fill="white"/>
<path fill-rule="evenodd" clip-rule="evenodd" d="M62.8958 105.636L64.1031 106.621C64.7344 105.995 65.6405 104.783 66.0703 104.135C65.7641 103.523 65.4043 103.358 64.9071 103.059C64.4009 103.468 63.1313 105.055 62.8958 105.636V105.636Z" fill="white"/>
<path fill-rule="evenodd" clip-rule="evenodd" d="M83.5225 79.0206C83.8888 79.3143 84.3251 79.7232 84.7967 79.8918C85.2426 79.5008 86.5274 77.8481 86.73 77.3031C86.2467 76.8113 86.1434 76.6805 85.5471 76.4009C85.1268 76.7583 83.7338 78.4999 83.5225 79.0206Z" fill="white"/>
<path fill-rule="evenodd" clip-rule="evenodd" d="M70.8401 63.7534L72.438 64.1638L73.337 60.9942L71.7012 60.5093L70.8401 63.7534Z" fill="white"/>
<path fill-rule="evenodd" clip-rule="evenodd" d="M98.5789 110.578L98.8612 112.217C99.8518 112.08 101.289 111.911 102.093 111.452L101.843 109.958L98.5789 110.578Z" fill="white"/>
<path fill-rule="evenodd" clip-rule="evenodd" d="M111.774 107.818L112.041 109.398L115.298 108.849C115.232 107.67 115.343 107.094 114.261 107.293C113.441 107.445 112.571 107.668 111.774 107.818V107.818Z" fill="white"/>
<path fill-rule="evenodd" clip-rule="evenodd" d="M66.9902 100.146C67.2977 100.685 67.7137 101.018 68.2847 101.232C68.9628 100.505 69.7474 99.5073 70.214 98.6932L69.0642 97.7021C68.2484 98.2958 67.7975 99.4006 66.9902 100.146Z" fill="white"/>
<path fill-rule="evenodd" clip-rule="evenodd" d="M76.2869 44.2714L77.8436 44.6538L78.8017 41.4594L77.1499 41.0107L76.2869 44.2714Z" fill="white"/>
<path fill-rule="evenodd" clip-rule="evenodd" d="M77.8896 99.2614L78.9215 100.32L81.3881 98.0035L80.3445 96.8809C79.6409 97.2541 78.1522 98.7079 77.8896 99.2614Z" fill="white"/>
<path fill-rule="evenodd" clip-rule="evenodd" d="M87.5847 89.6677C87.767 90.0588 87.6255 89.9257 88.0661 90.3573C88.3386 90.6242 88.4208 90.6643 88.7369 90.8309C89.4044 90.2552 90.6163 89.2688 90.967 88.5612L89.9137 87.4458L87.5847 89.6677Z" fill="white"/>
<path fill-rule="evenodd" clip-rule="evenodd" d="M69.0422 70.1574L70.5268 70.6413C71.0035 69.8695 71.3934 68.413 71.4638 67.3856L69.9867 67.0454L69.0422 70.1574Z" fill="white"/>
<path fill-rule="evenodd" clip-rule="evenodd" d="M79.4182 84.2455C79.7843 84.7277 80.0407 84.9378 80.6685 85.2181C81.1579 84.741 81.327 84.455 81.7041 83.9672C82.1151 83.4358 82.4656 83.1944 82.56 82.5569L81.4429 81.7056L80.3359 82.9747C79.924 83.4969 79.7291 83.771 79.4182 84.2455V84.2455Z" fill="white"/>
<path fill-rule="evenodd" clip-rule="evenodd" d="M74.4861 50.7402L76.1402 51.1462L76.9733 47.9145L75.4295 47.542L74.4861 50.7402Z" fill="white"/>
<path fill-rule="evenodd" clip-rule="evenodd" d="M59.9795 102.622L61.5189 103.138L62.4333 100.026C61.8245 99.6869 61.5454 99.6091 60.771 99.5679L59.9795 102.622Z" fill="white"/>
<path fill-rule="evenodd" clip-rule="evenodd" d="M80.0347 31.3228L81.4141 31.6262C81.4486 31.5622 81.4876 31.4438 81.4991 31.4723C81.5106 31.5004 81.5604 31.3718 81.5755 31.3396C81.7695 30.9273 81.6149 31.3193 81.7566 30.9184L82.318 28.4022L80.8709 28.0439C80.4697 28.8803 80.0343 30.4117 80.0347 31.3228V31.3228Z" fill="white"/>
<path fill-rule="evenodd" clip-rule="evenodd" d="M85.3533 113.324L85.6679 114.949L88.8797 114.316L88.6443 112.686L85.3533 113.324Z" fill="white"/>
<path fill-rule="evenodd" clip-rule="evenodd" d="M65.4062 83.2481L66.9563 83.611L67.892 80.5069L66.2455 79.9995L65.4062 83.2481Z" fill="white"/>
<path fill-rule="evenodd" clip-rule="evenodd" d="M72.1907 116.075L72.4035 117.695L75.6866 117.073L75.4043 115.442L72.1907 116.075Z" fill="white"/>
<path fill-rule="evenodd" clip-rule="evenodd" d="M131.662 103.693L131.85 105.315L135.148 104.703L134.862 103.076L131.662 103.693Z" fill="white"/>
<path fill-rule="evenodd" clip-rule="evenodd" d="M105.19 109.182L105.47 110.825L108.663 110.192L108.473 108.582L105.19 109.182Z" fill="white"/>
<path fill-rule="evenodd" clip-rule="evenodd" d="M124.981 105.076L125.285 106.682L128.556 106.066L128.278 104.502L124.981 105.076Z" fill="white"/>
<path fill-rule="evenodd" clip-rule="evenodd" d="M73.0317 103.879L74.1077 105.019L76.5085 102.827C76.2688 102.246 75.9575 101.935 75.4147 101.634L73.0317 103.879Z" fill="white"/>
<path fill-rule="evenodd" clip-rule="evenodd" d="M118.415 106.44L118.682 108.062L121.898 107.452L121.646 105.845L118.415 106.44Z" fill="white"/>
<path fill-rule="evenodd" clip-rule="evenodd" d="M78.8035 114.681L79.0148 116.292C80.0582 116.257 81.4515 116.004 82.2662 115.58L82.0644 114.264C82.0015 114.246 81.9256 114.176 81.9005 114.224L78.8035 114.681Z" fill="white"/>
<path fill-rule="evenodd" clip-rule="evenodd" d="M92.3804 84.9404C92.7685 85.5494 93.0963 85.899 93.6887 86.1648C94.2897 85.0972 95.2096 84.7466 95.8098 83.8701L94.7694 82.7544L92.3804 84.9404Z" fill="white"/>
<path fill-rule="evenodd" clip-rule="evenodd" d="M91.9844 111.959L92.2457 113.527L95.5074 112.95C95.4415 112.209 95.404 111.917 95.1165 111.377L91.9844 111.959Z" fill="white"/>
<path fill-rule="evenodd" clip-rule="evenodd" d="M131.02 47.3086L132.047 48.4694L134.468 46.3021L133.422 45.0742L131.02 47.3086Z" fill="white"/>
</svg>
