<svg width="139" height="140" viewBox="0 0 139 140" fill="none" xmlns="http://www.w3.org/2000/svg">
<g id="Group 2">
<path id="path95" fill-rule="evenodd" clip-rule="evenodd" d="M26.9751 43.163L31.676 44.9524C36.575 46.7135 41.5067 48.3078 46.6769 49.6001C58.3157 52.5089 66.9853 53.7535 78.9701 52.3045C84.2299 51.6686 90.3788 50.2487 95.4146 48.8339C96.2244 48.6064 97.1151 48.3699 97.9577 48.0873C99.6473 47.5207 101.407 47.0843 102.991 46.4526C103.756 46.1475 104.609 45.8808 105.426 45.5978L110.181 43.7736C110.554 43.6206 110.957 43.4565 111.373 43.2769C111.86 43.0671 112.415 42.9456 112.415 42.6296C112.415 34.6344 112.822 30.6767 110.137 23.1257C109.111 20.2403 107.237 16.9547 105.331 14.5959C102.863 11.5426 100.348 9.36414 96.9626 7.22736C95.2781 6.16407 92.3327 4.72617 90.5107 4.07718C83.5608 1.6018 77.3004 0.665527 69.6507 0.665527C62.6257 0.665527 57.4241 1.3558 50.9425 3.20618C49.5318 3.60898 48.3111 4.09157 47.0301 4.62817C46.3425 4.91616 45.8164 5.15888 45.2011 5.46648C43.1771 6.47847 40.3439 8.05743 38.6449 9.57902C38.138 10.033 37.7065 10.3318 37.2221 10.8235C36.7722 11.2801 36.3133 11.568 35.8921 12.0718C35.6342 12.3803 35.5553 12.4931 35.2651 12.7784C33.1158 14.891 30.7978 18.92 29.6422 21.8252C29.3957 22.4447 29.1373 23.1123 28.9185 23.7688C28.0853 26.2694 27.0647 31.181 27.061 33.9137C27.0604 34.3205 27.0951 34.8453 27.051 35.2374C26.9082 36.5097 26.9751 41.664 26.9751 43.163V43.163Z" fill="white"/>
<path id="path97" fill-rule="evenodd" clip-rule="evenodd" d="M69.562 60.1441L57.8506 59.6752C56.6706 59.5178 55.3776 59.4743 54.117 59.3191C49.2234 58.7167 44.595 57.9702 40.2046 56.8725C37.9655 56.3126 35.9039 55.7286 33.8099 55.0877C29.6089 53.802 25.7472 52.1007 21.7862 50.7524C16.8202 49.0619 13.2386 48.1834 8.64292 51.0582C4.32054 53.762 0.480957 59.3968 0.480957 64.5895V66.1009C0.480957 70.8546 3.55604 75.3134 6.90883 78.1657C10.894 81.5561 16.2981 83.6811 21.3031 84.9313C21.8731 85.0737 22.9169 85.3806 23.5079 85.3938C23.5079 77.1073 33.0481 73.7915 39.5292 72.1645C46.9095 70.3118 58.5337 69.4794 66.0946 69.4794L86.7951 70.2056C95.6925 71.1347 114.905 73.9615 114.905 85.0381C115.476 85.0381 116.582 84.7264 117.129 84.5948C118.981 84.1486 121.725 83.2912 123.415 82.6127C128.211 80.6874 133.3 77.7881 136.189 73.4271C137.803 70.9919 138.91 68.5656 138.91 64.7672C138.91 62.5171 138.196 60.2185 137.428 58.6919C136.506 56.8569 135.64 55.5855 134.264 54.2095L132.344 52.3954C130.219 50.6638 127.194 49.0308 124.24 49.0308C122.114 49.0308 121.54 49.018 119.385 49.51C117.712 49.8921 116.294 50.3011 114.738 50.8202L110.203 52.4196C107.169 53.4301 104.481 54.5474 101.251 55.4696C97.4018 56.5684 95.5633 57.048 91.646 57.9564C90.1944 58.293 86.0803 58.964 84.739 59.14C82.0456 59.4933 76.226 60.0585 73.5629 60.0553C72.1268 60.0533 71.0049 60.1441 69.562 60.1441V60.1441Z" fill="white"/>
<path id="path99" fill-rule="evenodd" clip-rule="evenodd" d="M41.6448 112.51C42.043 112.617 44.0945 114.026 44.5964 114.36C46.0293 115.312 47.4187 116.358 48.8976 117.26C49.1666 117.424 49.3262 117.554 49.595 117.718C54.8567 120.941 59.9444 123.279 66.1989 123.963L68.4919 124.16C73.0823 124.297 77.006 123.608 81.0195 122.279C83.0255 121.614 85.8489 120.355 87.7585 119.327L92.9819 116.193C94.3261 115.373 95.2751 114.633 96.7674 113.844C96.6486 114.354 95.567 115.868 95.1856 116.441C94.3926 117.631 92.9218 119.331 91.9429 120.311L89.0126 123.07C84.7668 126.771 79.4436 129.492 73.8964 130.625C72.5798 130.894 70.2213 131.133 68.5884 130.998C66.692 130.842 64.367 130.478 62.638 129.925C58.2374 128.517 54.169 126.374 50.5964 123.474C49.1726 122.318 47.325 120.703 46.1575 119.378C46.0007 119.2 46.0019 119.156 45.8447 118.979L44.8569 117.833C43.928 116.662 41.9729 113.919 41.6448 112.51V112.51ZM32.4873 109.754C32.4873 112.891 32.9556 114.603 34.2951 117.282C36.1033 120.898 38.31 123.801 41.178 126.669C41.5317 127.022 41.8368 127.357 42.1994 127.692C42.4155 127.892 42.5165 127.922 42.7356 128.134L43.8 129.114C44.7236 129.979 46.75 131.434 47.8169 132.21C49.8526 133.692 53.5234 135.642 55.7168 136.579C57.6696 137.414 59.5696 138.083 61.7558 138.631C67.989 140.194 75.0112 139.946 80.9933 137.633C81.9975 137.245 83.0646 136.875 83.9656 136.427L86.6925 135.064C89.8161 133.33 91.3578 132.286 94.1282 130.053C95.3949 129.032 98.3941 126.307 99.397 125.009C99.6017 124.744 99.6447 124.719 99.8576 124.491C102.357 121.821 105.345 116.85 106.332 113.362C106.954 111.162 107.174 109.27 106.405 107.052C105.991 105.86 105.218 105.012 104.288 104.278C101.018 101.701 97.5481 103.203 94.3623 105.037L87.8405 109.185C79.7662 114.49 70.2901 117.479 60.646 113.602C58.9236 112.91 57.7595 112.388 56.1084 111.472C55.8123 111.307 55.5474 111.154 55.2638 110.983C54.6883 110.634 54.1746 110.345 53.6122 109.967C53.307 109.762 53.099 109.657 52.7932 109.452L48.8285 106.749C48.2733 106.379 47.7834 106.052 47.2282 105.682C43.215 103.007 38.7771 100.719 34.732 104.797C33.4459 106.094 32.4873 107.745 32.4873 109.754V109.754Z" fill="white"/>
<path id="path101" fill-rule="evenodd" clip-rule="evenodd" d="M60.4328 86.9334C58.3279 91.1137 59.3741 96.5771 62.9064 99.4284C63.3749 99.8066 63.7233 100.134 64.2885 100.447C68.0463 102.529 72.0457 102.496 75.644 100.011C75.8992 99.8344 76.1319 99.6697 76.3422 99.4642C77.039 98.7839 77.4372 98.5004 78.0807 97.5573C80.0684 94.6433 80.4802 91.2364 79.2403 87.8958C78.8557 86.8592 78.1402 85.668 77.4075 84.8386C72.9158 79.7549 64.0295 79.7936 60.4328 86.9334V86.9334Z" fill="white"/>
</g>
</svg>
