<svg viewBox="0 0 442 170" fill="none" xmlns="http://www.w3.org/2000/svg">
<path  d="M107.838 36.6371C104.091 31.4221 100.55 26.4449 97.0624 20.8953C92.9408 14.3342 91.6228 10.7061 81.912 8.52956C75.6259 7.11978 25.879 7.84123 15.692 8.09043C4.24949 8.3702 -3.07817 11.1191 2.48492 19.5173C13.0378 35.4476 23.6711 49.7226 35.5531 64.9699C43.0862 74.6389 51.8441 84.933 60.4575 93.7497C62.568 95.9086 64.7981 98.4501 66.9433 100.672L80.7321 113.94C97.7098 129.432 114.553 142.887 139.505 153.338C161.925 162.729 188.393 169.161 216.651 169.09C225.656 169.076 241.041 169.851 248.643 168.044C259.569 165.445 257.678 160.461 258.736 152.372C260.407 139.604 268.839 123.038 288.71 133.512C293.425 135.997 301.776 141.729 305.384 144.843L321.247 156.729C326.011 160.061 332.848 164.06 340.797 166.569C351.959 170.092 355.529 169.691 368.647 169.581C383.034 169.465 421.76 170.413 432.289 167.236C441.592 164.43 443.934 160.012 438.51 152.805C431.237 143.142 419.736 135.082 409.171 127.414C399.513 120.403 384.922 112.603 375.069 104.821C368.614 99.7226 367.127 95.1622 372.847 88.5284C386.783 72.3621 429.791 42.2074 439.764 20.7718C443.502 12.7415 440.73 8.9265 428.499 8.09043C419.061 7.44566 404.44 8.13365 394.41 8.1772C383.444 8.22059 372.51 8.27882 361.566 8.3222C348.475 8.38011 341.826 7.29929 336.866 14.3733C333.301 19.4608 330.173 25.0944 326.82 30.1819C317.736 43.9581 287.009 80.8389 271.061 82.8663C244.341 86.2618 268.318 17.9584 254.042 6.24614C244.297 -1.75089 182.197 -0.491928 165.696 2.33225C155.987 3.99567 154.86 5.05908 149.755 8.5048C147.946 9.72636 147.002 10.1409 147.002 12.3507C157.338 13.9504 164.449 15.3313 168.737 20.778C172.93 26.1045 173.64 33.0365 173.985 39.693C174.647 52.5835 178.535 99.094 147.106 77.896C135.072 69.7796 115.285 47.0069 107.838 36.6415V36.6371Z" fill="white"/>
</svg>
