<svg width="197" height="115" viewBox="0 0 197 115" fill="none" xmlns="http://www.w3.org/2000/svg">
<path fill-rule="evenodd" clip-rule="evenodd" d="M24.9134 107.119C25.9135 106.259 74.601 82.4069 78.0688 80.7104C84.4791 77.5742 90.1333 74.7052 98.5984 74.6896C106.706 74.6746 112.787 77.803 119.058 80.7808C131.018 86.4605 142.57 92.5066 154.45 98.287C156.727 99.395 171.177 106.329 172.064 107.168L153.029 107.176C110.448 107.176 67.4397 107.366 24.9134 107.118V107.119ZM7.61342 107.177C7.19142 101.308 12.3843 98.367 15.9507 96.1891C21.5138 92.7919 34.8131 86.6536 41.2929 83.4904C49.2477 79.6073 58.4535 74.8061 65.4546 69.6268C71.4733 65.1743 71.4238 64.4369 75.5394 60.6959C77.4053 58.9999 80.8807 54.3477 84.7047 50.8391C88.2509 47.5856 91.6645 45.4893 98.5984 45.5988C105.565 45.7087 108.628 47.3925 112.368 50.9641L117.085 55.8685C118.715 57.6588 119.878 59.0811 121.559 60.7898C123.198 62.4566 124.646 63.9055 126.453 65.5204C131.805 70.3038 136.877 73.3572 143.292 77.0959C154.309 83.5163 171.571 90.3497 181.161 96.277C184.743 98.4907 189.767 101.272 189.363 107.18C187.779 106.772 185.265 105.23 183.654 104.499C181.897 103.701 180.02 102.747 178.233 101.819C167.987 96.4945 156.006 90.8678 145.474 85.6263C139.238 82.5228 129.455 77.5893 123.451 74.8729C114.722 70.9235 109.382 67.2579 98.3768 67.2973C88.1973 67.3337 80.7434 71.2456 73.1956 74.9719C65.8966 78.5755 58.5853 82.1303 51.3413 85.6853C47.1603 87.7371 9.17861 106.783 7.61342 107.177V107.177ZM0.230957 104.562V107.925C1.06535 109.439 0.892956 110.52 2.18305 111.963C2.97174 112.845 4.20314 113.896 5.78743 114.264C7.87872 114.75 24.7676 114.653 28.8668 114.682C79.1863 115.05 130.575 115.025 180.79 114.591C183.471 114.568 190.414 114.775 192.332 113.872C192.379 113.85 192.435 113.822 192.48 113.798C195.088 112.462 196.538 109.996 196.708 106.924C197.386 94.6563 182.473 88.286 173.063 83.8294C167.763 81.3193 162.593 78.6563 157.44 76.0624C146.605 70.6087 135.677 64.8335 128.767 57.7368C128.197 57.1509 127.862 56.7468 127.322 56.1225C126.866 55.5951 126.382 55.2121 125.921 54.683L121.681 49.9579C121.059 49.3707 120.758 49.1678 120.216 48.5826C113.124 40.9236 110.983 40.9462 101.886 37.868C101.952 35.0354 105.91 31.3527 107.241 29.8802L110.95 25.7163C111.634 24.8682 112.504 23.6303 113.055 22.36C114.62 18.7572 114.418 12.3187 112.535 8.82714C106.978 -1.47946 92.5063 -2.67455 85.4706 7.23176C83.9316 9.39874 80.7634 16.6691 84.4043 19.0413C85.7483 19.917 87.4278 19.6527 88.5139 18.801C89.9686 17.6604 89.637 16.8295 90.0625 14.88C90.9466 10.8291 93.7666 7.52115 98.8239 7.78885C104.627 8.09605 109.184 14.2033 105.892 19.9993C103.262 24.63 99.0614 26.808 96.3909 31.4897C93.3954 36.7415 96.2684 37.7445 92.749 38.5711C84.4965 40.5091 79.3794 45.393 73.951 51.4556C70.4833 55.3284 67.5078 58.7726 63.3586 62.066C59.4613 65.1595 55.2243 67.6205 50.5765 70.2846C46.0093 72.9025 41.3423 75.0506 36.637 77.5416C27.2407 82.516 8.77521 89.8133 3.36114 97.1548C0.648154 100.834 1.17415 102.684 0.230957 104.562V104.562Z" fill="white"/>
</svg>
