<svg width="36" height="58" viewBox="0 0 36 58" fill="none" xmlns="http://www.w3.org/2000/svg">
<path fill-rule="evenodd" clip-rule="evenodd" d="M1.88183 20.8613C1.26758 20.3346 0.635468 19.7316 0 19.0858V19.3111C0.642057 19.9415 1.27607 20.4823 1.87335 20.8647L1.88183 20.8613ZM0 18.641C0.775852 19.5689 1.55751 20.4908 2.36139 21.3939Z" fill="#FAFAFA"/>
<path fill-rule="evenodd" clip-rule="evenodd" d="M18.7187 39.3405L21.8581 40.226C21.6841 40.0943 21.2671 39.8016 21.0364 39.6572C20.6167 39.3941 20.4864 39.4814 20.1458 39.2098C19.3587 38.5821 18.4459 38.7256 17.9405 38.1817L18.5389 38.1821C19.5295 38.7415 21.0232 38.3233 22.9131 40.637C23.1989 40.9869 23.0376 40.9113 23.2429 41.2433C22.0579 40.4383 19.5439 40.3593 18.245 39.9344C17.51 39.694 17.4244 39.5182 16.9232 39.1686C17.1223 39.1872 18.4471 39.5826 18.6375 39.6434C19.3914 39.8844 19.7383 39.973 20.6401 40.0128L20.1023 39.9054C20.0681 39.8975 19.9748 39.8671 19.9421 39.8601C19.4257 39.7503 19.3584 39.9779 18.618 39.6292L18.012 39.2117L18.7187 39.3405Z" fill="#FAFAFA"/>
<path fill-rule="evenodd" clip-rule="evenodd" d="M27.545 26.4251C26.7536 26.5563 25.1307 26.4806 24.6951 26.3288C24.8512 25.8872 24.708 26.3807 24.8814 26.07C25.0494 25.769 24.8946 25.7461 25.0849 25.4997C25.0963 25.4849 25.1314 25.4561 25.1419 25.4443C25.1533 25.4315 25.2004 25.4256 25.2088 25.3893C25.2177 25.3515 25.2584 25.3539 25.2818 25.3349L24.9861 25.1223C24.7897 24.8849 24.7799 24.2251 24.833 24.1115L24.8263 23.0597C24.704 23.1811 24.7369 23.0265 24.7674 23.3052C24.7962 23.57 24.8647 23.6118 24.8684 23.6213C25.1717 24.3926 25.1124 24.03 25.1413 24.8116C25.1532 25.1281 25.1112 24.9457 25.1867 25.1048C25.3789 25.5097 25.1856 25.2669 25.5602 25.535C25.6061 25.205 25.4323 25.3543 25.9112 25.3061C25.5798 24.9295 25.7106 24.8916 25.2116 24.8209L25.3409 24.6087C25.6685 24.0347 25.4423 24.3718 25.3734 24.0675C25.9929 24.3164 26.0756 24.3947 26.3548 25.0015C26.1417 24.935 26.2252 24.9632 26.0643 24.8619C26.0381 24.8454 25.9613 24.7887 25.9364 24.7704L25.8124 24.6708C25.7995 24.6604 25.7725 24.6357 25.7516 24.6191C25.8042 25.2 25.8395 24.7858 26.2905 25.5773C26.3215 25.5743 26.3637 25.5267 26.3794 25.5518C26.6305 25.9489 26.2649 25.2628 27.0439 25.5716C27.6386 25.8074 26.681 25.6964 27.1838 25.6465C27.3139 23.6694 27.6032 21.9198 27.734 19.9509L28.0631 14.3778C28.0721 14.3447 28.0803 14.3191 28.0911 14.2889L28.2175 14.0594C28.3535 14.6971 28.116 16.3682 28.1272 16.9162C28.4825 16.6389 28.4277 16.7183 28.4553 16.0789C28.5235 14.4978 28.206 13.7994 28.6167 13.3296C28.6888 13.3576 29.03 13.2953 28.9914 14.0356L28.5659 18.1428C28.5726 18.3186 28.6589 18.6679 28.5983 18.9934C28.4392 19.8473 28.4883 20.5689 28.3909 21.4363L28.1099 23.8171C27.8187 25.4953 27.9588 25.2068 27.8532 26.316L27.545 26.4251Z" fill="#FAFAFA"/>
<path fill-rule="evenodd" clip-rule="evenodd" d="M35.7045 12.7404C35.749 12.9086 36.4291 13.4379 35.3934 14.1454C34.5062 14.0088 34.7173 13.8842 34.6533 13.1989L35.1157 13.0432C34.4344 12.9679 34.0711 13.1707 33.9154 13.6584C33.7097 14.3032 34.1425 14.5994 34.3835 14.9542C33.2466 18.0198 31.3285 22.017 30.5546 25.2191C30.5545 25.2192 29.5403 25.4923 30.0439 26.0126C30.5015 25.859 30.2199 25.7365 30.7294 25.4456C31.1242 25.8051 31.0585 25.9667 30.8456 26.4181C30.1076 26.5603 29.4715 26.3306 29.5332 25.713C29.6241 25.4826 29.4896 25.3911 29.3779 25.2555C29.3648 25.2842 29.3469 25.2981 29.3403 25.3426L29.1765 25.6178C29.3071 25.2338 29.4441 24.89 29.5593 24.5183C29.7075 24.0391 29.6821 23.7567 30.028 23.4305L29.6562 24.8878L30.4508 24.5005L33.1878 16.8465C33.3657 16.3713 33.5299 16.0149 33.6863 15.5489C33.8871 14.9504 33.9033 14.7454 33.4448 14.3139L31.1083 20.7988C31.0968 20.771 31.0677 20.7096 31.0517 20.7262L30.8561 20.5665C30.819 20.5394 30.7598 20.5145 30.7185 20.4806C31.114 20.8914 30.2933 20.3116 30.8347 20.5808C30.9588 20.2237 31.0727 19.9118 31.1894 19.5237C31.3403 19.0222 31.5008 18.8951 31.4447 18.2019L30.5966 20.1741C30.7394 20.0705 30.7243 20.2412 30.6454 19.9073C30.6376 19.2616 31.444 17.1449 31.6734 16.4585C31.8758 15.8531 32.7377 13.3933 32.7026 12.9727L30.0059 12.9186C29.1425 12.7986 29.6261 13.3206 29.0495 12.9901C29.2077 12.7208 29.0427 12.8077 29.3784 12.7586C29.6091 12.7248 29.8485 12.8152 30.0755 12.8341C30.5316 12.8719 30.9549 12.7534 31.4546 12.744C31.2596 12.536 31.4053 12.4367 30.5221 12.4402C30.17 12.4412 30.1105 12.4297 29.8699 12.3598C30.0614 12.3191 30.0498 12.3165 30.1419 12.2545C29.9674 12.1535 29.2946 12.0555 29.2491 11.9344C29.2373 11.9027 29.2054 11.9005 29.181 11.8867L29.3867 11.8047C29.9373 11.6354 30.1185 11.7133 30.4874 11.8609C31.1532 12.1272 31.2741 11.7899 31.7718 12.0178C31.329 12.1693 30.7016 12.1055 30.3514 12.3565L35.4618 12.1608C35.9563 12.8266 34.7795 11.9287 35.7045 12.7404Z" fill="#FAFAFA"/>
<path fill-rule="evenodd" clip-rule="evenodd" d="M3.52817 12.2036C3.65873 12.3381 3.7502 12.4046 3.86278 12.5291C4.21693 12.9216 4.0542 12.9668 4.20051 13.4226C4.65818 14.8491 4.60904 14.2277 4.88769 16.0833C4.85843 16.0652 4.8198 16.001 4.80684 16.0214L4.03913 15.2224C3.775 14.8571 3.67671 14.512 3.47993 14.038C3.02504 12.9425 2.97569 12.3341 2.69994 11.6409C3.02215 11.9973 3.28884 12.3286 3.26159 12.7145C3.449 12.5487 3.61474 12.9691 3.26272 12.3278C3.38144 12.1993 3.23065 12.2738 3.52817 12.2036Z" fill="#FAFAFA"/>
<path fill-rule="evenodd" clip-rule="evenodd" d="M10.6272 41.0686C11.683 40.0002 10.5209 39.3725 9.42356 39.2948C7.02173 39.1246 6.1495 44.2781 11.1254 43.4451C11.8724 43.32 11.8179 43.0807 12.2371 42.7057C13.0174 42.0075 13.56 41.4645 13.5472 40.1377C13.5263 37.982 12.5712 37.3362 11.2048 36.1571C10.7378 35.7541 11.4586 36.3155 11.0823 36.0547C11.0628 36.0413 11.0355 36.0235 11.015 36.0113L10.3581 35.7072C10.0615 35.4653 10.3054 35.615 10.0991 35.4031C9.84081 35.1378 9.82797 35.293 9.54955 34.9748C8.6715 33.9712 9.30452 34.81 8.80754 34.2955C8.55011 34.0292 8.75772 34.0583 8.50297 33.7658C7.04564 34.6134 7.12214 37.6452 6.9707 39.3889C7.95618 39.1797 7.49292 38.8939 8.25727 38.5913C9.1438 38.2403 10.4185 38.4933 11.1847 39.2353C11.5308 39.5705 11.7358 39.9981 11.749 40.5034C11.7873 41.9772 9.7136 41.7573 9.32874 41.2706C8.90156 40.7305 9.45248 40.2294 9.84683 40.1638C10.6742 40.0263 10.4685 40.823 10.6272 41.0686ZM11.5387 34.3523C11.638 33.8333 11.5643 34.1725 11.974 33.8958C12.4185 33.5955 11.9011 33.983 12.2335 33.5182C10.6013 33.4623 10.7709 34.3014 10.7344 34.3942C10.9482 34.2603 10.6798 34.3159 11.0252 34.3006C11.0399 34.2999 11.4919 34.3483 11.5387 34.3523ZM10.3534 34.047C10.698 33.8208 10.8111 33.7206 10.7997 33.3193L11.6149 33.1731C11.4589 32.4525 9.31925 33.6421 9.96801 34.1528C10.2126 34.3453 9.99371 34.2829 10.3534 34.047ZM9.74152 32.6824C9.62079 33.0856 9.41307 32.97 9.38962 33.5546C10.0538 33.4598 9.74811 33.4154 10.2051 32.9939L9.85421 32.7313C9.83411 32.6826 9.77893 32.6991 9.74152 32.6824ZM17.9703 35.729C18.6761 35.5086 18.0455 35.7178 18.5512 35.4302C18.5704 35.4193 18.5957 35.4039 18.6144 35.3936C18.6336 35.383 18.6621 35.3692 18.6817 35.3587C19.833 34.7441 20.7679 32.8337 22.0667 32.7463C20.9845 32.6203 20.107 33.022 19.6045 33.7197C19.0881 34.4367 18.6438 34.4789 18.2844 34.9924L17.9703 35.729ZM12.2478 29.3956C12.6377 30.2233 12.9219 30.3055 12.6784 30.5969C11.8893 29.5412 11.247 28.8123 11.9496 27.2274C12.1907 26.683 12.6294 26.4198 13.089 25.9897C13.754 25.3675 13.9721 25.6548 14.5979 25.1892C13.4156 24.6309 12.8185 24.5355 11.8771 23.7553C10.8308 22.8881 10.8805 22.1511 11.3059 20.9273L10.9508 20.8402C10.9193 20.8333 10.8876 20.8286 10.8559 20.8204C10.6412 20.7658 10.6623 20.7929 10.5122 20.7089C10.2347 20.5537 10.2055 20.3773 10.2046 20.0277L10.1511 20.1541C9.97772 20.4427 9.94021 20.316 9.64883 20.8159C7.83746 23.9214 6.38302 27.7929 8.79356 30.957C9.77659 32.2474 10.022 32.0705 10.5681 32.2345C10.9508 32.3494 10.5058 32.1791 10.8037 32.3342L11.1531 32.5456C11.1752 32.5563 11.2051 32.5692 11.2278 32.5792C12.2348 33.0241 11.5887 32.8534 12.0617 33.1495C12.6208 33.4995 12.6599 33.02 12.6336 33.849C13.4055 33.8771 12.9969 33.9577 13.5188 34.1989C14.3101 34.5645 15.707 34.49 16.5538 34.3186C18.0903 34.0078 18.6301 33.5963 19.37 32.7C21.8686 29.6736 19.0846 24.6957 14.9735 26.1836C14.2745 26.4365 12.6405 26.3065 12.5504 28.2094C12.5069 29.1315 13.1523 30.5561 14.8734 30.1718C15.5194 30.0275 16.1218 29.8217 16.285 29.3179C16.4181 28.9071 16.2241 28.2937 15.249 28.2801L14.9668 28.7857C15.152 28.9049 14.8747 28.7906 15.1629 28.8265C15.6056 28.8812 15.201 28.6851 15.6241 28.8762L15.6163 29.383C14.4291 29.9922 13.7682 28.4732 14.6416 27.9161C15.5651 27.327 16.6434 27.9154 17.0385 28.6111C18.1665 30.5978 14.9801 31.8851 13.4652 30.8868C13.1836 30.7012 13.3875 30.9206 13.1452 30.5909C13.9021 30.6349 13.7432 30.8039 14.6059 30.6936C12.9327 30.436 12.6372 29.5642 12.2478 29.3956ZM10.2498 15.8162C9.91352 15.5156 10.1894 15.7951 9.57042 15.5921C11.1086 17.4286 10.4827 16.5682 10.3002 17.67L10.6349 17.8084L10.2611 18.476C10.4643 18.5616 9.97785 18.4343 10.4067 18.4278L10.6171 18.4632C10.6272 18.439 10.676 18.4735 10.6989 18.4894C10.4127 18.6846 10.1153 18.9138 10.2276 19.1644C10.4079 18.9359 10.5252 18.809 10.6867 18.596C11.2419 17.8643 12.0762 17.1212 12.0892 17.1031C11.8819 16.5527 11.8974 16.7687 11.5148 16.5124C11.2086 16.3071 11.2308 16.1778 10.9574 16.0097C10.9485 16.0249 10.9552 16.0532 10.9541 16.0614C10.8726 16.5023 11.0994 16.1618 10.8005 16.4491L10.2498 15.8162ZM22.5032 32.5891C22.5354 32.6064 22.577 32.6231 22.604 32.6339C22.6304 32.644 22.6706 32.6637 22.7024 32.6754C23.2466 32.8755 23.592 32.8974 24.0791 32.8157C23.9124 32.8226 24.0256 32.954 24.3172 32.5355L25.36 29.7109C25.6074 28.5254 24.5649 29.7228 25.0348 28.4933L25.0337 28.5603C24.9609 28.5643 24.8294 28.5573 24.6831 28.191L25.6429 28.4947C25.6422 28.5016 25.6227 28.5274 25.6196 28.5344C25.5855 28.6131 25.2426 28.5394 25.5567 28.7586L26.0777 28.8844L25.8906 29.6974C25.7653 30.6161 25.9451 30.0105 25.5932 31.0318C25.2199 32.1148 24.0113 33.5659 23.1597 34.3603L22.8256 34.6217C22.2674 34.8874 23.0892 34.3591 22.6256 34.6683C22.3647 34.8422 22.61 35.0843 22.1858 35.2537C21.8126 35.4029 22.1296 35.306 21.8781 35.2812C21.4751 35.2415 21.7642 35.3018 21.5156 35.1483C21.7751 34.7855 21.9446 34.959 21.958 34.4243L22.8753 34.4015L22.1779 34.0038C22.6486 33.9845 23.0672 33.8256 23.2186 33.4544L23.2863 32.9969C22.4967 33.1707 22.3831 33.1885 22.1717 33.7683C21.9974 33.6081 21.7724 34.1034 22.1273 33.4621C22.1453 33.1237 22.0916 33.5058 22.2525 33.091C21.322 33.3513 20.3927 34.0411 20.0136 34.6546C19.7698 35.049 19.5968 35.128 19.4863 35.4817C19.2797 36.1437 18.907 36.0877 18.5301 36.6371C20.3199 36.3109 20.9147 34.8512 21.4785 34.5595C21.6176 35.0743 21.5167 34.9261 21.5188 35.4566C21.1742 35.5689 21.0055 35.4686 20.9524 35.6738C20.9323 35.6509 20.5825 35.4954 21.0653 35.6341C21.4681 35.7498 21.0476 35.5135 21.2988 35.7701L20.5911 36.2289C20.0249 36.4246 19.7777 36.6786 19.2939 36.8758C18.7964 37.0788 17.9135 37.1293 17.5893 37.2816L18.7028 37.6535C18.8644 38.08 18.913 37.7259 18.7095 37.9498C18.4786 37.7721 18.3025 37.6815 17.9941 37.6374C17.4283 37.5565 17.6531 37.5949 17.2538 37.7493L16.6554 37.7489C17.1608 38.2928 18.0736 38.1493 18.8607 38.777C19.2013 39.0486 19.3315 38.9614 19.7512 39.2244C19.982 39.3688 20.399 39.6616 20.573 39.7933L17.4337 38.9077L17.035 38.6807C16.0012 38.2279 16.8459 38.8775 15.35 38.0479C15.3279 38.0355 15.2997 38.0188 15.277 38.0075L15.0473 37.9128C14.7933 37.8313 15.0451 37.8742 14.7297 37.8509C14.8016 38.098 14.7031 37.9954 15.0819 38.3416C15.3966 38.6292 15.2089 38.858 15.2061 38.8464C15.2017 38.8289 15.1922 38.9112 15.1721 38.9379C14.7658 38.5736 15.0856 38.6673 14.5946 38.528C14.9257 38.7847 14.7052 38.8426 14.9408 39.1066C15.6644 39.9182 15.807 40.5197 15.79 41.6392C15.5435 41.4587 15.4633 41.5379 15.4489 40.9254C15.8197 41.041 15.1771 41.7803 15.2317 42.062C15.7614 42.2711 14.8655 42.3633 15.4155 41.9737C15.4388 41.9574 15.5775 41.8777 15.5931 41.8306C15.6124 41.7725 15.6573 41.7679 15.6969 41.745C15.7191 42.8284 15.3667 43.3329 14.9871 44.1239L14.3902 44.7543C14.4567 43.9541 14.5911 44.5952 14.7094 43.7197L14.0762 44.2098C13.937 44.4551 13.9351 44.4098 13.9304 44.7585C13.7886 44.4877 13.905 44.3669 14.1504 43.8559C14.3834 43.3707 14.2078 43.4223 14.5655 42.8662C14.8253 42.4623 15.3215 41.529 15.0039 40.8999C15.1254 41.7573 14.6351 41.576 14.4247 41.9474C13.9905 42.7135 14.0094 43.2828 13.7986 43.7426C13.6896 43.98 13.5532 44.1515 13.5345 44.455L13.5937 45.8022C13.4822 46.2074 13.7278 45.9689 13.3303 46.2157C13.2576 44.4213 13.1723 43.9672 13.8833 42.5072C14.2091 41.8377 14.7566 40.8039 14.7271 40.014C14.7123 39.6186 14.6095 39.4139 14.3524 39.1886C14.2804 41.0323 14.7105 40.7049 13.7386 42.2737C13.0872 43.3254 12.7146 43.5022 11.5834 44.1593C10.5179 44.7781 9.9813 44.905 9.09052 45.7467C8.80026 46.0208 8.43462 46.5141 8.30998 46.8966C8.23258 47.1342 8.19406 47.4122 8.37956 47.647C8.50286 47.803 8.2108 47.8598 9.3322 47.8587C9.31445 47.8355 9.27703 47.78 9.26642 47.7984L8.84941 47.3788C8.63989 46.8899 9.34506 46.1692 10.6496 47.0793C10.8085 48.6042 9.26185 49.0733 8.13062 48.1868C7.74632 47.8857 7.81636 47.7481 7.55815 47.3204C6.7011 47.4826 7.11029 47.239 6.88146 47.8554C6.6916 47.5028 6.90603 47.4671 6.51872 47.3166C6.51313 48.1941 6.54663 49.0786 6.52765 49.9521C6.50799 50.8233 6.20121 51.3738 6.30742 52.3194C6.37711 52.9398 6.53994 54.1333 6.45306 54.779C6.39521 55.2094 6.2404 55.4927 6.23672 55.9275C6.23337 56.3289 6.34417 56.6221 6.36047 57.1122C6.30619 56.3795 6.18021 57.0214 6.04406 55.2022C5.97192 54.2369 5.53548 54.3955 5.47483 53.3285L5.67943 53.7402C5.75314 53.9003 5.72299 53.8923 5.84751 54.0597L5.77614 49.6528C5.73672 47.9736 5.92803 47.0583 5.89475 45.9438C5.88805 45.7201 5.83388 45.5013 5.84092 45.3219C5.8465 45.1686 5.82071 45.1958 5.88984 45.0503C6.04218 44.7305 5.89654 44.9554 6.17005 44.7508C6.22824 45.6731 6.02564 45.7238 6.553 45.944L7.51013 45.9223L7.86561 46.4084C8.17564 45.9901 8.3408 45.5874 8.66848 45.2826C9.00107 44.9733 9.51995 44.7145 9.82429 44.4291C9.79547 44.4135 9.74777 44.3692 9.73102 44.3946C9.71416 44.4199 9.66123 44.3686 9.63666 44.3625C8.98209 44.199 8.88861 44.3334 8.15252 43.9637C7.5806 43.6763 7.4114 43.5318 7.05201 43.0574C6.8732 42.699 6.77558 42.7451 6.58349 42.4458C6.54786 42.3903 6.50699 42.3744 6.43317 42.1271C6.14056 41.1474 6.44545 39.0734 6.42311 38.1101L6.15463 37.9627C5.81701 37.7357 6.04743 38.0636 5.8904 37.7056C5.7766 37.4462 5.93496 37.4416 5.9373 36.9866C5.90916 36.9926 5.73493 37.4771 6.02229 37.0019C6.10705 36.8616 6.09612 36.9929 6.0797 36.8118C6.04809 36.4608 6.09478 36.6632 5.96992 36.5511C5.80295 35.5278 5.34985 34.7595 5.23627 33.8354L3.7613 28.4055C3.40983 27.3142 3.09935 26.822 3.00889 25.6013L3.33523 26.2933C3.32518 27.08 3.57356 27.5492 3.78977 28.2187L4.46534 29.8279C4.47204 29.8122 4.4936 29.8823 4.50868 29.9092L4.28721 30.0168C4.43329 30.5015 4.61857 31.1008 4.74332 31.5319C4.87979 32.0034 5.07189 32.5068 5.22065 32.9896C5.41419 33.6179 5.40782 34.6328 5.92926 35.3778L6.30821 35.8408C6.37131 35.36 6.29166 34.5993 6.292 34.0522C6.29245 33.563 6.19462 33.6871 6.03491 33.3652C5.79335 32.8783 5.76955 32.5256 6.11387 32.1066C6.63185 31.4767 6.2604 32.241 6.36248 31.8309C6.35578 31.3077 6.38247 30.2025 6.17675 29.7753L6.06071 29.8205C5.91195 29.8854 5.9583 30.2704 5.97036 29.7738C5.97595 29.5222 5.98298 29.3119 5.97115 29.0551C5.99761 29.3978 5.95528 29.4394 6.28128 29.5471L6.11845 20.202C6.54731 20.5037 6.54218 20.8332 6.51214 21.5924C6.47796 22.4548 6.45137 25.352 6.57701 25.9192C7.06294 25.1893 6.70322 25.3511 6.7729 24.7303C6.79156 24.5645 7.04552 23.8461 7.11889 23.5602C7.11666 23.1645 7.25627 22.9514 7.42647 22.6415C7.56518 22.3891 7.66626 22.1256 7.76554 21.8215C7.97204 21.1889 8.14001 20.6789 8.42167 20.0742C9.60874 17.5252 10.1316 18.0959 9.70031 16.7595C9.4153 15.8767 8.2748 14.4943 7.83165 13.6653C7.6993 13.4176 7.59075 12.9491 7.46834 12.7112C7.35487 12.491 7.19283 12.203 7.07914 11.9441C6.95417 11.6591 6.47192 10.5012 6.34539 10.3276C6.19172 10.6131 6.21305 12.5427 6.25906 12.972L5.97784 13.4976C5.96288 13.4794 5.93552 13.5704 5.90414 13.5994C5.89967 12.9667 6.05212 11.2879 5.4363 10.9743C5.59813 10.4637 5.19786 9.87121 4.99393 9.51481C5.0883 9.03924 4.78073 9.33303 5.14135 9.21675L5.67821 10.2303C5.64939 9.3618 5.40124 9.39534 5.59746 8.55113C5.73975 7.93848 5.62739 7.2019 5.32898 6.76038L5.12784 6.43664C5.12449 6.43066 4.93105 6.11736 4.92859 6.11198C4.80664 5.8416 4.86404 5.69348 4.66268 5.26341C4.36427 4.62587 4.15296 4.29804 4.30641 3.76225C4.23672 3.91118 4.65664 4.85544 4.76363 5.13051C4.86727 5.39731 5.03548 5.63284 5.13287 5.88013C5.42692 6.62628 5.13509 6.35161 5.56853 6.6212L5.4028 5.94793C5.22489 5.03413 5.09467 5.27038 5.35846 5.20318C5.36628 5.20119 5.42055 5.21453 5.42647 5.19273C5.43317 5.16784 5.4803 5.19183 5.50375 5.18158C5.32718 4.57739 5.17865 4.15349 5.1715 3.57379C5.3187 3.68738 5.45473 3.4841 5.30742 3.7737L4.61979 1.56481L5.06339 2.16432C5.15396 1.34898 4.95841 1.06973 4.88526 0.337821C5.29736 0.423237 5.12024 0.416561 5.49159 0.493615C6.18044 2.96541 5.79782 6.99811 7.27939 10.2791C7.89811 11.6494 8.58384 12.7238 9.45105 13.9324C9.66224 14.2266 9.8064 14.5487 9.99168 14.7886C10.2693 15.1482 11.903 16.439 12.0743 16.5229C12.0862 16.5289 13.2425 16.6536 12.3619 17.4983L11.2206 18.7418C11.0393 18.9594 10.8391 19.1969 10.6867 19.4124C11.3494 19.4411 11.4833 19.5977 11.8561 19.9923C12.1237 19.8587 12.3893 19.6252 12.774 19.6048C13.0001 19.5929 12.9293 19.6128 13.0445 19.6222L13.2426 19.6444C13.7472 19.6814 15.2637 19.6047 15.2769 20.9359C15.2825 21.5689 14.8482 22.3217 14.2006 22.4144C13.3004 22.5433 12.5952 21.873 12.8289 21.1176C13.2599 20.8901 13.9611 20.8863 14.0342 21.4547C13.6408 21.5051 13.5523 21.4859 13.0657 21.2276C12.9056 22.1548 14.1136 22.0054 14.61 21.5587C14.7654 21.2776 14.3848 19.4911 12.7251 20.6322L12.2498 20.9373C11.7468 21.2942 11.4716 22.7728 12.6931 23.6225C14.1848 24.6602 15.1989 24.9223 17.3847 25.3569C19.3024 25.7382 20.1671 26.5323 20.8256 28.1097C21.3667 29.4064 21.197 29.2884 21.1336 30.6249C21.0563 32.2545 20.9676 31.5013 20.3159 32.815C20.7385 32.7544 21.8747 32.1543 22.5043 32.5891H22.5032Z" fill="#FAFAFA"/>
<path fill-rule="evenodd" clip-rule="evenodd" d="M22.3391 26.2204C22.5169 25.7957 20.0747 20.6584 19.5712 19.5037L17.743 15.4043C17.3621 15.5887 17.6901 15.4534 17.3654 15.7639C17.175 15.9459 17.3085 15.8944 16.9553 15.9919C17.5102 16.3777 17.4616 16.5444 17.7822 17.0713C18.491 18.237 19.1972 19.7663 19.7973 20.9598C20.0808 21.5237 20.1292 21.7099 20.3245 22.3685C20.4708 22.8615 20.6823 23.2198 20.9046 23.736C21.434 24.9655 21.1729 25.402 22.3391 26.2204ZM17.8208 14.0664C17.9361 14.4777 18.0359 14.405 18.2483 14.7633L18.5451 15.4185C19.3214 16.7579 19.3422 16.5713 19.8627 18.4263L21.6889 22.9921C22.0903 24.01 22.4419 25.2199 23.0119 25.975C23.2075 25.9645 22.9344 26.0443 23.1219 25.8907C23.3277 25.722 23.0911 25.8127 23.3607 25.6964C23.6618 25.961 23.5509 25.9534 23.9783 26.0711C23.7419 25.4003 23.5542 26.0791 23.3767 24.9962C23.0591 23.0599 23.0608 22.9081 22.4213 20.8411L21.3122 16.9351C21.0993 16.4255 21.195 16.0259 20.7435 15.7985L21.2679 15.656L20.9426 15.3965C21.4586 15.0799 21.222 14.3061 20.286 14.2151C20.5906 14.9606 20.5905 14.221 20.7812 14.8581C20.5057 15.1002 20.1682 15.263 19.8444 14.8253C19.5449 14.4205 19.7385 14.2715 19.9634 13.9893C18.559 14.0399 17.2256 13.7872 15.7191 13.8469C15.9841 13.9917 16.3114 13.861 16.7551 14.0508C17.1879 14.2359 16.6538 14.3545 17.8208 14.0664ZM28.0661 9.40057C28.1089 8.75856 27.7219 8.64706 27.2534 8.36622L27.299 8.15885C27.3956 7.83252 26.5056 7.36453 25.8461 7.36483L26.509 8.39718C26.7613 8.85333 26.7529 9.06678 27.1141 9.45035C27.2638 9.40197 27.4635 9.51983 27.3022 9.21092C27.3011 9.20893 27.2779 9.1933 27.2655 9.19739C27.5569 9.38654 27.7207 9.34144 28.0661 9.40057ZM24.6318 1.81157C24.5548 2.22491 24.5096 2.07847 24.643 2.43487L24.6641 2.85686C24.9613 2.76368 24.7474 2.83049 24.9426 2.66991C25.7491 2.00689 24.3662 2.96877 25.1499 2.48285C25.1387 2.5157 25.0667 2.66144 25.0609 2.69171C24.9344 3.34 24.8161 2.41007 25.0687 2.90874L25.3908 3.19295C24.8212 3.25159 25.1747 3.0724 24.6829 3.16717C24.6558 3.17215 24.604 3.24561 24.5834 3.21704C24.5612 3.18638 24.5134 3.25547 24.4822 3.27907C24.5081 3.29569 24.5406 3.31879 24.5607 3.32775C24.5802 3.33671 24.6154 3.36249 24.6405 3.37205C24.6658 3.382 24.6979 3.39793 24.7272 3.40659C25.0025 3.48852 25.3439 3.42552 25.5829 3.41656L25.0778 4.03975L24.9739 5.14697C25.2376 4.88545 25.7332 3.85338 25.9902 3.45676C25.77 3.17165 25.619 3.19564 25.4441 2.73998C25.3067 2.38209 25.356 2.32108 25.1491 1.94735L24.8351 2.18986L24.6318 1.81157ZM29.1464 8.44228C29.2921 8.67563 29.3146 8.72511 29.4853 8.86897L29.8628 9.1478C30.491 9.65612 30.4061 9.44119 30.6197 9.90929C29.8614 9.67684 29.41 9.19141 28.8943 9.04866C28.8257 8.91077 28.9825 8.86945 28.3591 8.66298L28.3231 8.96136C28.3265 8.97031 28.341 8.99669 28.3452 9.00515L28.7352 9.44458C29.0097 9.64886 28.5306 9.58643 29.184 9.57399C29.1458 9.60296 29.0836 9.58096 29.0618 9.65204C28.9631 9.97409 28.8318 9.5287 28.7403 10.1992C28.9669 10.269 29.2397 10.3687 29.5435 10.184C29.8517 10.5281 29.1288 10.1122 29.7688 10.812C29.7959 10.8417 29.8337 10.8709 29.868 10.8985C29.3301 10.6927 29.6072 10.6277 29.136 10.8104L28.3928 10.6168C28.4094 10.5994 28.4298 10.5607 28.4423 10.5452C28.4554 10.5293 28.4719 10.4938 28.485 10.4675L28.5408 10.7568C29.1278 10.7172 29.1621 10.8019 29.5149 10.5969C29.4454 10.5154 29.4929 10.1971 29.0454 10.5584C29.0313 10.5696 29.0109 10.605 28.992 10.6272L28.4758 9.72154C28.2054 9.32522 28.3048 9.46329 28.0661 9.40057L28.4461 10.4645L27.8123 10.4119C27.8877 10.2606 27.9203 10.2672 27.9603 10.2218C28.1703 9.98406 27.958 10.3763 28.1306 10.0326C27.8782 10.0744 28.0076 10.075 27.7926 10.0603L27.6565 9.8434C27.3516 9.4182 27.8004 9.76186 27.346 9.54722C27.2037 9.79272 27.2998 9.8867 27.3168 9.9299C27.3866 10.1077 27.8541 10.603 27.9967 11.0995C27.8945 11.3353 28.2667 11.4092 27.7145 11.2148L26.6714 11.3188C26.8864 11.1555 26.8114 11.2037 27.3833 11.1245L27.234 10.8266C27.2295 10.8147 27.2197 10.7865 27.215 10.7744L27.1565 10.609C27.0529 10.3151 27.0213 10.4953 27.0296 10.1396C26.5938 10.1093 26.784 10.1232 26.4864 10.2012C26.5726 9.95698 26.3599 10.242 26.5961 10.0677L26.8319 9.92681C26.5194 9.47474 26.4512 9.04109 26.0606 8.60784C25.478 9.49038 26.2744 9.47097 25.8617 9.84628C25.6052 8.99938 25.5721 7.35705 24.4726 7.44227C24.4393 8.27244 24.7605 7.16979 24.7466 7.99598C24.7433 8.18214 24.6708 8.20863 24.5735 8.31943L24.453 8.43591C24.2896 8.60645 24.4183 8.39638 24.2681 8.6372C24.0369 8.93556 23.8179 9.19391 23.5154 9.53288C23.2773 9.79969 22.9933 10.2916 22.8323 10.5567L21.8869 12.1826C21.7263 12.8158 21.8368 12.2487 22.0771 12.6349L21.8059 12.9384C21.5728 13.0284 21.7107 13.0471 21.4451 13.0459C21.1943 13.0449 21.224 13.0091 21.1203 12.9669L21.3209 12.6964C21.3475 12.6524 21.4234 12.5048 21.4371 12.4727C21.5197 12.2767 21.4945 12.2894 21.5142 12.235C21.7335 11.6321 21.8076 11.9964 21.9799 11.4597C21.7067 11.2722 21.4889 11.2759 21.1812 11.3415L22.2778 11.2643C22.2634 10.7547 22.3685 11.0185 22.0908 10.8336C21.7635 10.6156 21.7368 10.8406 21.7341 10.8426C21.8697 10.8396 21.9661 10.8552 22.0988 10.8196C22.289 10.7683 22.3278 10.7285 22.4066 10.6828C22.4413 10.2644 22.6263 10.2908 22.0464 10.4288C22.6492 10.3894 22.4864 10.5216 22.8351 9.97221C23.0987 9.55688 23.4729 8.97379 23.5711 8.49444L23.1955 8.65981C22.4592 9.0402 22.4693 8.55716 21.5749 9.17528L20.3951 10.0764C20.6174 9.74263 20.7173 9.751 20.8857 9.41859C20.2771 9.67285 20.0593 10.0399 19.479 10.3482C18.9691 10.6189 18.4458 10.8858 17.901 11.1895L15.682 12.4592C15.1016 12.7588 15.0394 12.4245 15.056 13.1351C15.5763 13.4907 17.3955 13.2887 17.4467 13.272C17.8573 13.1384 17.6101 13.291 17.8813 13.0081L20.8738 12.9141C20.7091 12.8953 20.2497 12.9051 19.9769 12.9324C19.7003 12.9603 19.5754 12.9641 19.3999 13.165L19.2538 13.222C19.1928 13.0637 19.2685 13.1706 19.1581 13.0471L18.6968 13.0763C18.8543 13.1967 18.9048 13.1882 18.8827 13.3722C18.157 13.3927 17.157 13.1669 16.5871 13.539C18.946 14.0237 19.5786 13.2855 21.3323 13.9021C21.6238 14.0045 21.1966 14.0004 21.707 13.9993C21.7522 14.0545 21.9042 14.4048 21.9438 14.5751C22.078 15.1533 22.009 14.9784 21.506 15.1759C21.5194 15.7475 22.2701 18.7068 22.4802 19.1665C22.7866 19.8369 22.4314 19.5156 22.8657 20.8871C22.8985 20.9908 22.9962 21.5556 23.0009 21.5847C23.0402 21.8255 23.0407 21.9984 23.1001 22.2414L23.4883 23.4559C23.5561 23.7088 23.5368 23.9049 23.6056 24.186C23.7135 24.6269 23.9346 25.1912 24.181 25.4592C24.2742 24.9013 24.0711 25.0677 24.2347 24.4966C24.1818 24.6103 24.1915 25.27 24.3879 25.5074L24.6836 25.72C24.6602 25.739 24.6194 25.7366 24.6106 25.7745C24.6028 25.8107 24.5551 25.8166 24.5437 25.8294C24.5336 25.8412 24.4981 25.87 24.4867 25.8848C24.2964 26.1312 24.4512 26.1541 24.2832 26.4551C24.1098 26.7658 24.253 26.2723 24.0969 26.7139C24.5325 26.8657 26.1554 26.9414 26.9469 26.8102C26.9644 27.5567 27.0046 27.0105 26.7273 27.2172C26.123 27.0415 24.1428 26.8491 23.1826 27.3327L22.8477 27.5545C22.531 27.9237 22.675 27.9005 22.2643 27.9272C21.9069 27.5241 22.2892 27.2245 22.2982 27.1991C22.3038 27.1824 22.3027 26.79 22.3094 26.4752C22.1118 27.3315 22.3372 27.7136 21.9057 27.6919C21.3717 27.6651 22.055 27.9376 21.5932 27.5573L21.943 27.1212C21.6275 26.9409 21.1597 27.1065 20.8748 26.5126L21.2692 26.1361C22.0048 26.5836 21.1738 26.6784 21.8904 26.67C22.2309 25.9678 21.4396 26.0619 21.1012 25.6437C20.9721 25.484 20.5778 24.5357 20.461 24.2288C19.722 22.2877 18.3349 19.0959 17.2081 17.3013C16.8791 16.7772 16.6392 16.4173 16.5133 15.7845C16.5343 15.7625 16.5705 15.7048 16.582 15.7234L16.8241 15.4875C17.0083 15.2482 17.0462 14.9424 16.8821 14.6544L16.5468 14.3453C16.2127 14.829 16.5676 14.5586 16.547 15.137C16.0177 15.2876 15.7736 15.1142 15.4005 14.9841C15.3483 14.3759 15.4295 14.5187 15.5685 14.0036C13.9721 14.0525 13.7814 13.8337 13.7571 13.1434C14.3875 12.7618 14.3443 12.9102 15.1003 12.485C15.5905 12.2093 15.8753 12.0307 16.4181 11.7095C18.8702 10.2582 19.3287 9.83881 21.3628 8.49057C21.7684 8.22168 23.0025 7.32579 23.2804 6.93445L23.4847 6.53097C23.9372 6.50867 23.7563 6.45988 24.1097 6.60194C24.1251 5.62164 24.6287 6.49891 23.8756 5.06186C23.7425 4.808 23.1221 3.70097 23.116 3.67887C23.0578 3.47428 23.1822 3.0497 23.2656 2.86543L24.4053 0.678851C24.322 1.50554 24.0315 1.78 23.6573 2.61226C24.1266 2.46084 24.2251 1.87019 24.4114 1.45526C24.6776 0.862319 24.6632 0.234547 24.8247 0C25.0912 0.54993 25.2072 1.14127 25.5077 1.75999C25.6325 2.01704 25.9172 2.40102 25.9803 2.58141C26.1297 3.00779 25.8909 2.66951 26.076 2.94218C26.1505 3.05179 26.6749 3.03447 26.1642 3.84672C25.9064 4.25678 25.8468 4.79187 25.778 5.2302L25.6605 5.6312C25.6473 5.64972 25.6238 5.67262 25.6089 5.68905L25.4804 5.78969C25.4664 5.80104 25.4292 5.81727 25.4081 5.83579C25.9915 6.73336 25.217 6.35844 27.1129 7.30659C27.5945 7.5474 28.8447 8.43491 29.1464 8.44228Z" fill="#FAFAFA"/>
</svg>
